<svg width="480" height="87" viewBox="0 0 480 87" fill="none" xmlns="http://www.w3.org/2000/svg">
<rect width="480" height="87" rx="4" fill="#DEE8FF" fill-opacity="0.5"/>
<path d="M125.316 38.112C124.756 38.112 124.262 37.9953 123.832 37.762C123.403 37.5193 123.067 37.1833 122.824 36.754C122.591 36.3153 122.474 35.8113 122.474 35.242H123.482C123.482 35.8207 123.65 36.292 123.986 36.656C124.332 37.0107 124.784 37.188 125.344 37.188H126.898C127.449 37.188 127.892 37.0667 128.228 36.824C128.564 36.572 128.732 36.2453 128.732 35.844V34.948C128.732 34.6307 128.606 34.36 128.354 34.136C128.112 33.912 127.776 33.7673 127.346 33.702L124.826 33.282C124.117 33.1607 123.566 32.9087 123.174 32.526C122.782 32.1433 122.586 31.6627 122.586 31.084V30.328C122.586 29.6467 122.838 29.1053 123.342 28.704C123.856 28.2933 124.532 28.088 125.372 28.088H126.954C127.748 28.088 128.387 28.3307 128.872 28.816C129.358 29.292 129.6 29.922 129.6 30.706H128.592C128.592 30.1927 128.443 29.782 128.144 29.474C127.846 29.166 127.449 29.012 126.954 29.012H125.372C124.84 29.012 124.416 29.1333 124.098 29.376C123.781 29.6093 123.622 29.9267 123.622 30.328V31.084C123.622 31.4107 123.739 31.686 123.972 31.91C124.215 32.134 124.546 32.2833 124.966 32.358L127.472 32.792C128.2 32.9227 128.765 33.1747 129.166 33.548C129.568 33.912 129.768 34.3787 129.768 34.948V35.844C129.768 36.5253 129.507 37.076 128.984 37.496C128.462 37.9067 127.776 38.112 126.926 38.112H125.316ZM133.856 38.112C133.072 38.112 132.442 37.8833 131.966 37.426C131.49 36.9593 131.252 36.3433 131.252 35.578V33.576C131.252 32.7733 131.49 32.1293 131.966 31.644C132.442 31.1493 133.072 30.902 133.856 30.902H135.004C135.75 30.902 136.352 31.14 136.81 31.616C137.267 32.092 137.496 32.722 137.496 33.506V34.738H132.26V35.578C132.26 36.0633 132.404 36.46 132.694 36.768C132.992 37.0667 133.38 37.216 133.856 37.216H134.92C135.386 37.216 135.764 37.09 136.054 36.838C136.343 36.5767 136.488 36.2313 136.488 35.802H137.468C137.468 36.4927 137.234 37.0527 136.768 37.482C136.301 37.902 135.685 38.112 134.92 38.112H133.856ZM136.488 33.87V33.506C136.488 32.9927 136.352 32.582 136.082 32.274C135.811 31.9567 135.452 31.798 135.004 31.798H133.856C133.38 31.798 132.992 31.9613 132.694 32.288C132.404 32.6147 132.26 33.044 132.26 33.576V33.87H136.488ZM141.188 38C140.498 38 140.003 37.8553 139.704 37.566C139.406 37.2673 139.256 36.7773 139.256 36.096V28.2H140.264V36.096C140.264 36.4507 140.334 36.7073 140.474 36.866C140.624 37.0247 140.862 37.104 141.188 37.104H141.664V38H141.188ZM145.326 38.112C144.542 38.112 143.912 37.8833 143.436 37.426C142.96 36.9593 142.722 36.3433 142.722 35.578V33.576C142.722 32.7733 142.96 32.1293 143.436 31.644C143.912 31.1493 144.542 30.902 145.326 30.902H146.474C147.221 30.902 147.823 31.14 148.28 31.616C148.738 32.092 148.966 32.722 148.966 33.506V34.738H143.73V35.578C143.73 36.0633 143.875 36.46 144.164 36.768C144.463 37.0667 144.85 37.216 145.326 37.216H146.39C146.857 37.216 147.235 37.09 147.524 36.838C147.814 36.5767 147.958 36.2313 147.958 35.802H148.938C148.938 36.4927 148.705 37.0527 148.238 37.482C147.772 37.902 147.156 38.112 146.39 38.112H145.326ZM147.958 33.87V33.506C147.958 32.9927 147.823 32.582 147.552 32.274C147.282 31.9567 146.922 31.798 146.474 31.798H145.326C144.85 31.798 144.463 31.9613 144.164 32.288C143.875 32.6147 143.73 33.044 143.73 33.576V33.87H147.958ZM152.995 38.112C152.23 38.112 151.614 37.8833 151.147 37.426C150.68 36.9593 150.447 36.3433 150.447 35.578V33.576C150.447 32.7733 150.68 32.1293 151.147 31.644C151.614 31.1493 152.225 30.902 152.981 30.902H154.129C154.848 30.902 155.426 31.1027 155.865 31.504C156.304 31.9053 156.523 32.4327 156.523 33.086H155.543C155.543 32.7033 155.412 32.3953 155.151 32.162C154.899 31.9193 154.558 31.798 154.129 31.798H152.981C152.524 31.798 152.155 31.9613 151.875 32.288C151.595 32.6147 151.455 33.044 151.455 33.576V35.578C151.455 36.0727 151.595 36.4693 151.875 36.768C152.164 37.0667 152.538 37.216 152.995 37.216H154.143C154.582 37.216 154.932 37.062 155.193 36.754C155.464 36.446 155.599 36.0353 155.599 35.522H156.579C156.579 36.2967 156.355 36.922 155.907 37.398C155.459 37.874 154.871 38.112 154.143 38.112H152.995ZM160.922 38C160.185 38 159.653 37.8413 159.326 37.524C159.009 37.2067 158.85 36.684 158.85 35.956V31.91H157.618V31.014H158.85V28.9H159.858V31.014H161.678V31.91H159.858V35.956C159.858 36.3667 159.938 36.6607 160.096 36.838C160.264 37.0153 160.54 37.104 160.922 37.104H161.678V38H160.922ZM169.779 38.112C168.873 38.112 168.15 37.8413 167.609 37.3C167.067 36.7587 166.797 36.0307 166.797 35.116H168.099C168.099 35.6667 168.253 36.1053 168.561 36.432C168.878 36.7587 169.293 36.922 169.807 36.922H171.361C171.874 36.922 172.285 36.8147 172.593 36.6C172.901 36.376 173.055 36.082 173.055 35.718V34.962C173.055 34.6727 172.943 34.43 172.719 34.234C172.504 34.038 172.196 33.9073 171.795 33.842L169.247 33.422C168.5 33.3007 167.921 33.044 167.511 32.652C167.109 32.26 166.909 31.77 166.909 31.182V30.412C166.909 29.712 167.175 29.152 167.707 28.732C168.248 28.3027 168.957 28.088 169.835 28.088H171.417C171.967 28.088 172.453 28.2047 172.873 28.438C173.302 28.662 173.633 28.984 173.867 29.404C174.1 29.8147 174.217 30.2907 174.217 30.832H172.901C172.901 30.3653 172.765 29.992 172.495 29.712C172.224 29.4227 171.865 29.278 171.417 29.278H169.835C169.359 29.278 168.971 29.3853 168.673 29.6C168.383 29.8053 168.239 30.09 168.239 30.454V31.084C168.239 31.3827 168.341 31.63 168.547 31.826C168.761 32.022 169.065 32.1573 169.457 32.232L171.977 32.666C172.751 32.7967 173.344 33.0533 173.755 33.436C174.175 33.8093 174.385 34.2807 174.385 34.85V35.76C174.385 36.4693 174.109 37.0387 173.559 37.468C173.017 37.8973 172.294 38.112 171.389 38.112H169.779ZM178.441 38.112C177.619 38.112 176.957 37.8647 176.453 37.37C175.958 36.8753 175.711 36.2267 175.711 35.424V33.604C175.711 32.792 175.963 32.1387 176.467 31.644C176.971 31.1493 177.638 30.902 178.469 30.902H179.645C180.475 30.902 181.143 31.1493 181.647 31.644C182.151 32.1387 182.403 32.792 182.403 33.604V35.424C182.403 36.2267 182.146 36.8753 181.633 37.37C181.129 37.8647 180.461 38.112 179.631 38.112H178.441ZM179.617 36.964C180.065 36.964 180.424 36.8193 180.695 36.53C180.965 36.2407 181.101 35.8533 181.101 35.368V33.646C181.101 33.1607 180.965 32.7733 180.695 32.484C180.433 32.1947 180.083 32.05 179.645 32.05H178.469C178.03 32.05 177.675 32.1947 177.405 32.484C177.143 32.7733 177.013 33.1607 177.013 33.646V35.368C177.013 35.8533 177.143 36.2407 177.405 36.53C177.666 36.8193 178.016 36.964 178.455 36.964H179.617ZM186.268 38.112C185.587 38.112 185.036 37.8833 184.616 37.426C184.206 36.9687 184 36.3667 184 35.62V31.014H185.302V35.648C185.302 36.04 185.4 36.3573 185.596 36.6C185.792 36.8427 186.049 36.964 186.366 36.964H187.206C187.598 36.964 187.958 36.8053 188.284 36.488C188.611 36.1707 188.826 35.7693 188.928 35.284V31.014H190.23V38H188.998V36.992C188.774 37.3187 188.494 37.5893 188.158 37.804C187.822 38.0093 187.491 38.112 187.164 38.112H186.268ZM192.192 31.014H193.438V32.036C193.625 31.728 193.895 31.476 194.25 31.28C194.614 31.084 194.992 30.986 195.384 30.986H196.112V32.148H195.384C194.815 32.148 194.357 32.3253 194.012 32.68C193.667 33.0253 193.494 33.4827 193.494 34.052V38H192.192V31.014ZM199.481 38.112C198.678 38.112 198.029 37.874 197.535 37.398C197.04 36.9127 196.793 36.278 196.793 35.494V33.618C196.793 32.7967 197.035 32.1387 197.521 31.644C198.015 31.1493 198.664 30.902 199.467 30.902H200.601C201.366 30.902 201.982 31.1167 202.449 31.546C202.915 31.9753 203.149 32.5447 203.149 33.254H201.861C201.861 32.89 201.744 32.6007 201.511 32.386C201.287 32.162 200.983 32.05 200.601 32.05H199.481C199.07 32.05 198.734 32.1993 198.473 32.498C198.221 32.7873 198.095 33.1747 198.095 33.66V35.452C198.095 35.9093 198.225 36.278 198.487 36.558C198.748 36.8287 199.084 36.964 199.495 36.964H200.615C201.007 36.964 201.319 36.8287 201.553 36.558C201.795 36.278 201.917 35.9093 201.917 35.452H203.205C203.205 36.2453 202.967 36.8893 202.491 37.384C202.015 37.8693 201.389 38.112 200.615 38.112H199.481ZM207.138 38.112C206.317 38.112 205.654 37.8787 205.15 37.412C204.655 36.936 204.408 36.3153 204.408 35.55V33.618C204.408 32.7967 204.655 32.1387 205.15 31.644C205.654 31.1493 206.317 30.902 207.138 30.902H208.286C209.079 30.902 209.719 31.1447 210.204 31.63C210.689 32.1153 210.932 32.7593 210.932 33.562V34.878H205.71V35.55C205.71 35.9793 205.841 36.3247 206.102 36.586C206.363 36.8473 206.709 36.978 207.138 36.978H208.216C208.636 36.978 208.977 36.8707 209.238 36.656C209.499 36.432 209.63 36.138 209.63 35.774H210.904C210.904 36.474 210.657 37.0387 210.162 37.468C209.667 37.8973 209.014 38.112 208.202 38.112H207.138ZM209.63 33.842V33.562C209.63 33.0953 209.504 32.722 209.252 32.442C209.009 32.162 208.687 32.022 208.286 32.022H207.138C206.709 32.022 206.363 32.1713 206.102 32.47C205.841 32.7593 205.71 33.1467 205.71 33.632V33.842H209.63ZM219.389 38.112C218.736 38.112 218.157 37.9627 217.653 37.664C217.149 37.3653 216.757 36.9453 216.477 36.404C216.207 35.8533 216.071 35.2187 216.071 34.5V31.7C216.071 30.9813 216.211 30.3513 216.491 29.81C216.771 29.2593 217.163 28.8347 217.667 28.536C218.181 28.2373 218.773 28.088 219.445 28.088H220.929C221.564 28.088 222.124 28.228 222.609 28.508C223.104 28.7787 223.482 29.1613 223.743 29.656C224.014 30.1507 224.149 30.72 224.149 31.364H222.847C222.847 30.7387 222.67 30.2347 222.315 29.852C221.97 29.4693 221.508 29.278 220.929 29.278H219.445C218.839 29.278 218.344 29.502 217.961 29.95C217.588 30.398 217.401 30.9907 217.401 31.728V34.472C217.401 35.2093 217.583 35.802 217.947 36.25C218.311 36.698 218.792 36.922 219.389 36.922H220.901C221.499 36.922 221.975 36.712 222.329 36.292C222.693 35.8627 222.875 35.3027 222.875 34.612H224.177C224.177 35.3027 224.042 35.914 223.771 36.446C223.501 36.978 223.118 37.3887 222.623 37.678C222.129 37.9673 221.555 38.112 220.901 38.112H219.389ZM227.747 38C227.009 38 226.477 37.846 226.151 37.538C225.824 37.2207 225.661 36.712 225.661 36.012V28.2H226.963V35.97C226.963 36.2873 227.028 36.516 227.159 36.656C227.289 36.796 227.504 36.866 227.803 36.866H228.363V38H227.747ZM231.727 38.112C231.046 38.112 230.495 37.8833 230.075 37.426C229.665 36.9687 229.459 36.3667 229.459 35.62V31.014H230.761V35.648C230.761 36.04 230.859 36.3573 231.055 36.6C231.251 36.8427 231.508 36.964 231.825 36.964H232.665C233.057 36.964 233.417 36.8053 233.743 36.488C234.07 36.1707 234.285 35.7693 234.387 35.284V31.014H235.689V38H234.457V36.992C234.233 37.3187 233.953 37.5893 233.617 37.804C233.281 38.0093 232.95 38.112 232.623 38.112H231.727ZM239.807 38.112C239.051 38.112 238.444 37.9067 237.987 37.496C237.53 37.076 237.301 36.5253 237.301 35.844H238.575C238.575 36.1893 238.687 36.4693 238.911 36.684C239.135 36.8987 239.434 37.006 239.807 37.006H241.039C241.394 37.006 241.678 36.9407 241.893 36.81C242.108 36.67 242.215 36.488 242.215 36.264V35.858C242.215 35.7087 242.15 35.578 242.019 35.466C241.898 35.3447 241.739 35.2653 241.543 35.228L239.121 34.808C238.608 34.7147 238.197 34.5233 237.889 34.234C237.581 33.9353 237.427 33.59 237.427 33.198V32.736C237.427 32.1853 237.646 31.742 238.085 31.406C238.524 31.07 239.112 30.902 239.849 30.902H241.025C241.725 30.902 242.285 31.0933 242.705 31.476C243.134 31.8587 243.349 32.3673 243.349 33.002H242.075C242.066 32.7033 241.963 32.4653 241.767 32.288C241.58 32.1013 241.333 32.008 241.025 32.008H239.863C239.518 32.008 239.242 32.078 239.037 32.218C238.841 32.358 238.743 32.5447 238.743 32.778V33.128C238.743 33.2773 238.808 33.408 238.939 33.52C239.07 33.632 239.238 33.7113 239.443 33.758L241.893 34.192C242.378 34.276 242.77 34.4627 243.069 34.752C243.377 35.0413 243.531 35.3773 243.531 35.76V36.306C243.531 36.8473 243.302 37.286 242.845 37.622C242.388 37.9487 241.786 38.112 241.039 38.112H239.807ZM247.835 38C247.069 38 246.514 37.832 246.169 37.496C245.833 37.16 245.665 36.6187 245.665 35.872V32.148H244.433V31.014H245.679V28.9H246.967V31.014H248.787V32.148H246.967V35.844C246.967 36.208 247.037 36.4693 247.177 36.628C247.326 36.7867 247.564 36.866 247.891 36.866H248.787V38H247.835ZM252.693 38.112C251.871 38.112 251.209 37.8787 250.705 37.412C250.21 36.936 249.963 36.3153 249.963 35.55V33.618C249.963 32.7967 250.21 32.1387 250.705 31.644C251.209 31.1493 251.871 30.902 252.693 30.902H253.841C254.634 30.902 255.273 31.1447 255.759 31.63C256.244 32.1153 256.487 32.7593 256.487 33.562V34.878H251.265V35.55C251.265 35.9793 251.395 36.3247 251.657 36.586C251.918 36.8473 252.263 36.978 252.693 36.978H253.771C254.191 36.978 254.531 36.8707 254.793 36.656C255.054 36.432 255.185 36.138 255.185 35.774H256.459C256.459 36.474 256.211 37.0387 255.717 37.468C255.222 37.8973 254.569 38.112 253.757 38.112H252.693ZM255.185 33.842V33.562C255.185 33.0953 255.059 32.722 254.807 32.442C254.564 32.162 254.242 32.022 253.841 32.022H252.693C252.263 32.022 251.918 32.1713 251.657 32.47C251.395 32.7593 251.265 33.1467 251.265 33.632V33.842H255.185ZM258.09 31.014H259.336V32.036C259.523 31.728 259.794 31.476 260.148 31.28C260.512 31.084 260.89 30.986 261.282 30.986H262.01V32.148H261.282C260.713 32.148 260.256 32.3253 259.91 32.68C259.565 33.0253 259.392 33.4827 259.392 34.052V38H258.09V31.014ZM272.83 38H271.822V31.882H268.742V38H267.734V31.882H266.53V30.986H267.734V30.468C267.734 29.7027 267.93 29.124 268.322 28.732C268.714 28.34 269.288 28.144 270.044 28.144H271.836V29.012H270.044C269.596 29.012 269.264 29.1333 269.05 29.376C268.844 29.6093 268.742 29.9733 268.742 30.468V30.986H272.83V38ZM274.963 31.014H275.943V32.092C276.13 31.7653 276.41 31.4993 276.783 31.294C277.166 31.0887 277.563 30.986 277.973 30.986H278.589V31.896H277.973C277.376 31.896 276.891 32.0873 276.517 32.47C276.153 32.8433 275.971 33.3427 275.971 33.968V38H274.963V31.014ZM281.928 38.112C281.219 38.112 280.649 37.9113 280.22 37.51C279.791 37.1087 279.576 36.5813 279.576 35.928H280.556C280.556 36.32 280.682 36.6373 280.934 36.88C281.186 37.1227 281.517 37.244 281.928 37.244H283.146C283.547 37.244 283.874 37.1647 284.126 37.006C284.378 36.838 284.504 36.6233 284.504 36.362V35.886C284.504 35.7087 284.434 35.5547 284.294 35.424C284.154 35.284 283.972 35.1907 283.748 35.144L281.326 34.724C280.841 34.64 280.449 34.458 280.15 34.178C279.861 33.8887 279.716 33.5527 279.716 33.17V32.708C279.716 32.1667 279.921 31.7327 280.332 31.406C280.743 31.07 281.284 30.902 281.956 30.902H283.16C283.813 30.902 284.341 31.0887 284.742 31.462C285.143 31.826 285.344 32.3113 285.344 32.918H284.364C284.355 32.5727 284.238 32.2973 284.014 32.092C283.799 31.8773 283.515 31.77 283.16 31.77H281.956C281.583 31.77 281.284 31.8587 281.06 32.036C280.836 32.204 280.724 32.428 280.724 32.708V33.114C280.724 33.2913 280.799 33.45 280.948 33.59C281.107 33.73 281.307 33.8187 281.55 33.856L283.958 34.276C284.425 34.36 284.798 34.542 285.078 34.822C285.367 35.102 285.512 35.438 285.512 35.83V36.39C285.512 36.9033 285.293 37.3187 284.854 37.636C284.425 37.9533 283.855 38.112 283.146 38.112H281.928ZM289.875 38C289.138 38 288.606 37.8413 288.279 37.524C287.962 37.2067 287.803 36.684 287.803 35.956V31.91H286.571V31.014H287.803V28.9H288.811V31.014H290.631V31.91H288.811V35.956C288.811 36.3667 288.891 36.6607 289.049 36.838C289.217 37.0153 289.493 37.104 289.875 37.104H290.631V38H289.875ZM298.858 38C298.12 38 297.588 37.8413 297.262 37.524C296.944 37.2067 296.786 36.684 296.786 35.956V31.91H295.554V31.014H296.786V28.9H297.794V31.014H299.614V31.91H297.794V35.956C297.794 36.3667 297.873 36.6607 298.032 36.838C298.2 37.0153 298.475 37.104 298.858 37.104H299.614V38H298.858ZM303.565 38.112C302.781 38.112 302.151 37.8693 301.675 37.384C301.199 36.8987 300.961 36.2593 300.961 35.466V33.548C300.961 32.7547 301.199 32.1153 301.675 31.63C302.16 31.1447 302.799 30.902 303.593 30.902H304.741C305.534 30.902 306.169 31.1447 306.645 31.63C307.13 32.1153 307.373 32.7547 307.373 33.548V35.466C307.373 36.2593 307.13 36.8987 306.645 37.384C306.159 37.8693 305.515 38.112 304.713 38.112H303.565ZM304.713 37.216C305.217 37.216 305.618 37.0573 305.917 36.74C306.215 36.4133 306.365 35.9887 306.365 35.466V33.548C306.365 33.0253 306.215 32.6053 305.917 32.288C305.618 31.9613 305.226 31.798 304.741 31.798H303.593C303.107 31.798 302.715 31.9613 302.417 32.288C302.118 32.6053 301.969 33.0253 301.969 33.548V35.466C301.969 35.998 302.113 36.4227 302.403 36.74C302.692 37.0573 303.079 37.216 303.565 37.216H304.713ZM315.13 38.112C314.365 38.112 313.749 37.8833 313.282 37.426C312.815 36.9593 312.582 36.3433 312.582 35.578V33.576C312.582 32.7733 312.815 32.1293 313.282 31.644C313.749 31.1493 314.36 30.902 315.116 30.902H316.264C316.983 30.902 317.561 31.1027 318 31.504C318.439 31.9053 318.658 32.4327 318.658 33.086H317.678C317.678 32.7033 317.547 32.3953 317.286 32.162C317.034 31.9193 316.693 31.798 316.264 31.798H315.116C314.659 31.798 314.29 31.9613 314.01 32.288C313.73 32.6147 313.59 33.044 313.59 33.576V35.578C313.59 36.0727 313.73 36.4693 314.01 36.768C314.299 37.0667 314.673 37.216 315.13 37.216H316.278C316.717 37.216 317.067 37.062 317.328 36.754C317.599 36.446 317.734 36.0353 317.734 35.522H318.714C318.714 36.2967 318.49 36.922 318.042 37.398C317.594 37.874 317.006 38.112 316.278 38.112H315.13ZM320.368 28.2H321.376V31.98C321.59 31.6533 321.866 31.392 322.202 31.196C322.538 31 322.878 30.902 323.224 30.902H324.204C324.848 30.902 325.366 31.1213 325.758 31.56C326.159 31.9987 326.36 32.5727 326.36 33.282V38H325.352V33.254C325.352 32.8247 325.244 32.4747 325.03 32.204C324.815 31.9333 324.53 31.798 324.176 31.798H323.252C322.813 31.798 322.412 31.9707 322.048 32.316C321.693 32.652 321.469 33.086 321.376 33.618V38H320.368V28.2ZM330.731 38.112C329.947 38.112 329.317 37.8693 328.841 37.384C328.365 36.8987 328.127 36.2593 328.127 35.466V33.548C328.127 32.7547 328.365 32.1153 328.841 31.63C329.326 31.1447 329.965 30.902 330.759 30.902H331.907C332.7 30.902 333.335 31.1447 333.811 31.63C334.296 32.1153 334.539 32.7547 334.539 33.548V35.466C334.539 36.2593 334.296 36.8987 333.811 37.384C333.325 37.8693 332.681 38.112 331.879 38.112H330.731ZM331.879 37.216C332.383 37.216 332.784 37.0573 333.083 36.74C333.381 36.4133 333.531 35.9887 333.531 35.466V33.548C333.531 33.0253 333.381 32.6053 333.083 32.288C332.784 31.9613 332.392 31.798 331.907 31.798H330.759C330.273 31.798 329.881 31.9613 329.583 32.288C329.284 32.6053 329.135 33.0253 329.135 33.548V35.466C329.135 35.998 329.279 36.4227 329.569 36.74C329.858 37.0573 330.245 37.216 330.731 37.216H331.879ZM338.715 38.112C337.931 38.112 337.301 37.8693 336.825 37.384C336.349 36.8987 336.111 36.2593 336.111 35.466V33.548C336.111 32.7547 336.349 32.1153 336.825 31.63C337.31 31.1447 337.95 30.902 338.743 30.902H339.891C340.684 30.902 341.319 31.1447 341.795 31.63C342.28 32.1153 342.523 32.7547 342.523 33.548V35.466C342.523 36.2593 342.28 36.8987 341.795 37.384C341.31 37.8693 340.666 38.112 339.863 38.112H338.715ZM339.863 37.216C340.367 37.216 340.768 37.0573 341.067 36.74C341.366 36.4133 341.515 35.9887 341.515 35.466V33.548C341.515 33.0253 341.366 32.6053 341.067 32.288C340.768 31.9613 340.376 31.798 339.891 31.798H338.743C338.258 31.798 337.866 31.9613 337.567 32.288C337.268 32.6053 337.119 33.0253 337.119 33.548V35.466C337.119 35.998 337.264 36.4227 337.553 36.74C337.842 37.0573 338.23 37.216 338.715 37.216H339.863ZM346.364 38.112C345.654 38.112 345.085 37.9113 344.656 37.51C344.226 37.1087 344.012 36.5813 344.012 35.928H344.992C344.992 36.32 345.118 36.6373 345.37 36.88C345.622 37.1227 345.953 37.244 346.364 37.244H347.582C347.983 37.244 348.31 37.1647 348.562 37.006C348.814 36.838 348.94 36.6233 348.94 36.362V35.886C348.94 35.7087 348.87 35.5547 348.73 35.424C348.59 35.284 348.408 35.1907 348.184 35.144L345.762 34.724C345.276 34.64 344.884 34.458 344.586 34.178C344.296 33.8887 344.152 33.5527 344.152 33.17V32.708C344.152 32.1667 344.357 31.7327 344.768 31.406C345.178 31.07 345.72 30.902 346.392 30.902H347.596C348.249 30.902 348.776 31.0887 349.178 31.462C349.579 31.826 349.78 32.3113 349.78 32.918H348.8C348.79 32.5727 348.674 32.2973 348.45 32.092C348.235 31.8773 347.95 31.77 347.596 31.77H346.392C346.018 31.77 345.72 31.8587 345.496 32.036C345.272 32.204 345.16 32.428 345.16 32.708V33.114C345.16 33.2913 345.234 33.45 345.384 33.59C345.542 33.73 345.743 33.8187 345.986 33.856L348.394 34.276C348.86 34.36 349.234 34.542 349.514 34.822C349.803 35.102 349.948 35.438 349.948 35.83V36.39C349.948 36.9033 349.728 37.3187 349.29 37.636C348.86 37.9533 348.291 38.112 347.582 38.112H346.364ZM353.973 38.112C353.189 38.112 352.559 37.8833 352.083 37.426C351.607 36.9593 351.369 36.3433 351.369 35.578V33.576C351.369 32.7733 351.607 32.1293 352.083 31.644C352.559 31.1493 353.189 30.902 353.973 30.902H355.121C355.868 30.902 356.47 31.14 356.927 31.616C357.384 32.092 357.613 32.722 357.613 33.506V34.738H352.377V35.578C352.377 36.0633 352.522 36.46 352.811 36.768C353.11 37.0667 353.497 37.216 353.973 37.216H355.037C355.504 37.216 355.882 37.09 356.171 36.838C356.46 36.5767 356.605 36.2313 356.605 35.802H357.585C357.585 36.4927 357.352 37.0527 356.885 37.482C356.418 37.902 355.802 38.112 355.037 38.112H353.973ZM356.605 33.87V33.506C356.605 32.9927 356.47 32.582 356.199 32.274C355.928 31.9567 355.569 31.798 355.121 31.798H353.973C353.497 31.798 353.11 31.9613 352.811 32.288C352.522 32.6147 352.377 33.044 352.377 33.576V33.87H356.605ZM154.07 49.014H155.05V50.05C155.265 49.714 155.545 49.4387 155.89 49.224C156.235 49.0093 156.581 48.902 156.926 48.902H157.878C158.522 48.902 159.04 49.1213 159.432 49.56C159.833 49.9987 160.034 50.5727 160.034 51.282V56H159.026V51.254C159.026 50.8247 158.919 50.4747 158.704 50.204C158.489 49.9333 158.205 49.798 157.85 49.798H156.954C156.515 49.798 156.114 49.9707 155.75 50.316C155.395 50.6613 155.171 51.1047 155.078 51.646V56H154.07V49.014ZM164.098 56.112C163.416 56.112 162.87 55.9347 162.46 55.58C162.058 55.2253 161.858 54.7493 161.858 54.152V53.704C161.858 53.116 162.068 52.6447 162.488 52.29C162.908 51.9353 163.463 51.758 164.154 51.758H165.05C165.358 51.758 165.675 51.8047 166.002 51.898C166.328 51.9913 166.608 52.1173 166.842 52.276V51.114C166.842 50.722 166.72 50.4047 166.478 50.162C166.235 49.91 165.913 49.784 165.512 49.784H164.392C163.99 49.784 163.668 49.8773 163.426 50.064C163.183 50.2507 163.062 50.498 163.062 50.806H162.054C162.054 50.2367 162.268 49.7793 162.698 49.434C163.127 49.0793 163.692 48.902 164.392 48.902H165.512C166.202 48.902 166.758 49.1073 167.178 49.518C167.607 49.9193 167.822 50.4513 167.822 51.114V56H166.87V55.02C166.655 55.356 166.37 55.622 166.016 55.818C165.67 56.014 165.311 56.112 164.938 56.112H164.098ZM164.966 55.23C165.404 55.23 165.796 55.0947 166.142 54.824C166.487 54.5533 166.72 54.194 166.842 53.746V53.228C166.655 53.0507 166.394 52.9107 166.058 52.808C165.731 52.696 165.395 52.64 165.05 52.64H164.154C163.771 52.64 163.458 52.738 163.216 52.934C162.982 53.13 162.866 53.3867 162.866 53.704V54.152C162.866 54.4787 162.978 54.74 163.202 54.936C163.426 55.132 163.724 55.23 164.098 55.23H164.966ZM177.519 48.902C178.135 48.902 178.62 49.1027 178.975 49.504C179.339 49.896 179.521 50.442 179.521 51.142V56H178.513V51.114C178.513 50.7033 178.42 50.3813 178.233 50.148C178.046 49.9147 177.799 49.798 177.491 49.798H176.693C176.292 49.798 175.96 49.9333 175.699 50.204C175.438 50.4747 175.27 50.8573 175.195 51.352V56H174.187V51.198C174.187 50.7593 174.098 50.4187 173.921 50.176C173.753 49.924 173.52 49.798 173.221 49.798H172.423C172.04 49.798 171.704 49.966 171.415 50.302C171.126 50.638 170.944 51.0767 170.869 51.618V56H169.861V49.014H170.841V50.022C171.028 49.6673 171.261 49.392 171.541 49.196C171.821 49 172.115 48.902 172.423 48.902H173.249C173.641 48.902 173.977 49 174.257 49.196C174.546 49.3827 174.766 49.658 174.915 50.022C175.13 49.6487 175.386 49.3687 175.685 49.182C175.984 48.9953 176.31 48.902 176.665 48.902H177.519ZM183.888 56.112C183.104 56.112 182.474 55.8833 181.998 55.426C181.522 54.9593 181.284 54.3433 181.284 53.578V51.576C181.284 50.7733 181.522 50.1293 181.998 49.644C182.474 49.1493 183.104 48.902 183.888 48.902H185.036C185.783 48.902 186.385 49.14 186.842 49.616C187.299 50.092 187.528 50.722 187.528 51.506V52.738H182.292V53.578C182.292 54.0633 182.437 54.46 182.726 54.768C183.025 55.0667 183.412 55.216 183.888 55.216H184.952C185.419 55.216 185.797 55.09 186.086 54.838C186.375 54.5767 186.52 54.2313 186.52 53.802H187.5C187.5 54.4927 187.267 55.0527 186.8 55.482C186.333 55.902 185.717 56.112 184.952 56.112H183.888ZM186.52 51.87V51.506C186.52 50.9927 186.385 50.582 186.114 50.274C185.843 49.9567 185.484 49.798 185.036 49.798H183.888C183.412 49.798 183.025 49.9613 182.726 50.288C182.437 50.6147 182.292 51.044 182.292 51.576V51.87H186.52ZM191.277 56.112C190.567 56.112 189.998 55.9113 189.569 55.51C189.139 55.1087 188.925 54.5813 188.925 53.928H189.905C189.905 54.32 190.031 54.6373 190.283 54.88C190.535 55.1227 190.866 55.244 191.277 55.244H192.495C192.896 55.244 193.223 55.1647 193.475 55.006C193.727 54.838 193.853 54.6233 193.853 54.362V53.886C193.853 53.7087 193.783 53.5547 193.643 53.424C193.503 53.284 193.321 53.1907 193.097 53.144L190.675 52.724C190.189 52.64 189.797 52.458 189.499 52.178C189.209 51.8887 189.065 51.5527 189.065 51.17V50.708C189.065 50.1667 189.27 49.7327 189.681 49.406C190.091 49.07 190.633 48.902 191.305 48.902H192.509C193.162 48.902 193.689 49.0887 194.091 49.462C194.492 49.826 194.693 50.3113 194.693 50.918H193.713C193.703 50.5727 193.587 50.2973 193.363 50.092C193.148 49.8773 192.863 49.77 192.509 49.77H191.305C190.931 49.77 190.633 49.8587 190.409 50.036C190.185 50.204 190.073 50.428 190.073 50.708V51.114C190.073 51.2913 190.147 51.45 190.297 51.59C190.455 51.73 190.656 51.8187 190.899 51.856L193.307 52.276C193.773 52.36 194.147 52.542 194.427 52.822C194.716 53.102 194.861 53.438 194.861 53.83V54.39C194.861 54.9033 194.641 55.3187 194.203 55.636C193.773 55.9533 193.204 56.112 192.495 56.112H191.277ZM196.562 49.014H197.542V49.966C197.738 49.6487 197.995 49.392 198.312 49.196C198.639 49 198.965 48.902 199.292 48.902H200.3C201.047 48.902 201.649 49.14 202.106 49.616C202.573 50.092 202.806 50.722 202.806 51.506V53.228C202.806 54.096 202.568 54.796 202.092 55.328C201.625 55.8507 201.005 56.112 200.23 56.112H199.222C198.933 56.112 198.629 56.0327 198.312 55.874C197.995 55.706 197.747 55.4913 197.57 55.23V58.786H196.562V49.014ZM200.202 55.216C200.687 55.216 201.075 55.034 201.364 54.67C201.653 54.306 201.798 53.8253 201.798 53.228V51.506C201.798 50.9927 201.658 50.582 201.378 50.274C201.098 49.9567 200.729 49.798 200.272 49.798H199.292C198.9 49.798 198.545 49.952 198.228 50.26C197.911 50.5587 197.691 50.946 197.57 51.422V53.522C197.635 54.0167 197.827 54.4227 198.144 54.74C198.461 55.0573 198.839 55.216 199.278 55.216H200.202ZM206.672 56.112C205.99 56.112 205.444 55.9347 205.034 55.58C204.632 55.2253 204.432 54.7493 204.432 54.152V53.704C204.432 53.116 204.642 52.6447 205.062 52.29C205.482 51.9353 206.037 51.758 206.728 51.758H207.624C207.932 51.758 208.249 51.8047 208.576 51.898C208.902 51.9913 209.182 52.1173 209.416 52.276V51.114C209.416 50.722 209.294 50.4047 209.052 50.162C208.809 49.91 208.487 49.784 208.086 49.784H206.966C206.564 49.784 206.242 49.8773 206 50.064C205.757 50.2507 205.636 50.498 205.636 50.806H204.628C204.628 50.2367 204.842 49.7793 205.272 49.434C205.701 49.0793 206.266 48.902 206.966 48.902H208.086C208.776 48.902 209.332 49.1073 209.752 49.518C210.181 49.9193 210.396 50.4513 210.396 51.114V56H209.444V55.02C209.229 55.356 208.944 55.622 208.59 55.818C208.244 56.014 207.885 56.112 207.512 56.112H206.672ZM207.54 55.23C207.978 55.23 208.37 55.0947 208.716 54.824C209.061 54.5533 209.294 54.194 209.416 53.746V53.228C209.229 53.0507 208.968 52.9107 208.632 52.808C208.305 52.696 207.969 52.64 207.624 52.64H206.728C206.345 52.64 206.032 52.738 205.79 52.934C205.556 53.13 205.44 53.3867 205.44 53.704V54.152C205.44 54.4787 205.552 54.74 205.776 54.936C206 55.132 206.298 55.23 206.672 55.23H207.54ZM214.703 56.112C213.938 56.112 213.322 55.8833 212.855 55.426C212.388 54.9593 212.155 54.3433 212.155 53.578V51.576C212.155 50.7733 212.388 50.1293 212.855 49.644C213.322 49.1493 213.933 48.902 214.689 48.902H215.837C216.556 48.902 217.134 49.1027 217.573 49.504C218.012 49.9053 218.231 50.4327 218.231 51.086H217.251C217.251 50.7033 217.12 50.3953 216.859 50.162C216.607 49.9193 216.266 49.798 215.837 49.798H214.689C214.232 49.798 213.863 49.9613 213.583 50.288C213.303 50.6147 213.163 51.044 213.163 51.576V53.578C213.163 54.0727 213.303 54.4693 213.583 54.768C213.872 55.0667 214.246 55.216 214.703 55.216H215.851C216.29 55.216 216.64 55.062 216.901 54.754C217.172 54.446 217.307 54.0353 217.307 53.522H218.287C218.287 54.2967 218.063 54.922 217.615 55.398C217.167 55.874 216.579 56.112 215.851 56.112H214.703ZM222.265 56.112C221.481 56.112 220.851 55.8833 220.375 55.426C219.899 54.9593 219.661 54.3433 219.661 53.578V51.576C219.661 50.7733 219.899 50.1293 220.375 49.644C220.851 49.1493 221.481 48.902 222.265 48.902H223.413C224.16 48.902 224.762 49.14 225.219 49.616C225.676 50.092 225.905 50.722 225.905 51.506V52.738H220.669V53.578C220.669 54.0633 220.814 54.46 221.103 54.768C221.402 55.0667 221.789 55.216 222.265 55.216H223.329C223.796 55.216 224.174 55.09 224.463 54.838C224.752 54.5767 224.897 54.2313 224.897 53.802H225.877C225.877 54.4927 225.644 55.0527 225.177 55.482C224.71 55.902 224.094 56.112 223.329 56.112H222.265ZM224.897 51.87V51.506C224.897 50.9927 224.762 50.582 224.491 50.274C224.22 49.9567 223.861 49.798 223.413 49.798H222.265C221.789 49.798 221.402 49.9613 221.103 50.288C220.814 50.6147 220.669 51.044 220.669 51.576V51.87H224.897ZM229.654 56.112C228.944 56.112 228.375 55.9113 227.946 55.51C227.516 55.1087 227.302 54.5813 227.302 53.928H228.282C228.282 54.32 228.408 54.6373 228.66 54.88C228.912 55.1227 229.243 55.244 229.654 55.244H230.872C231.273 55.244 231.6 55.1647 231.852 55.006C232.104 54.838 232.23 54.6233 232.23 54.362V53.886C232.23 53.7087 232.16 53.5547 232.02 53.424C231.88 53.284 231.698 53.1907 231.474 53.144L229.052 52.724C228.566 52.64 228.174 52.458 227.876 52.178C227.586 51.8887 227.442 51.5527 227.442 51.17V50.708C227.442 50.1667 227.647 49.7327 228.058 49.406C228.468 49.07 229.01 48.902 229.682 48.902H230.886C231.539 48.902 232.066 49.0887 232.468 49.462C232.869 49.826 233.07 50.3113 233.07 50.918H232.09C232.08 50.5727 231.964 50.2973 231.74 50.092C231.525 49.8773 231.24 49.77 230.886 49.77H229.682C229.308 49.77 229.01 49.8587 228.786 50.036C228.562 50.204 228.45 50.428 228.45 50.708V51.114C228.45 51.2913 228.524 51.45 228.674 51.59C228.832 51.73 229.033 51.8187 229.276 51.856L231.684 52.276C232.15 52.36 232.524 52.542 232.804 52.822C233.093 53.102 233.238 53.438 233.238 53.83V54.39C233.238 54.9033 233.018 55.3187 232.58 55.636C232.15 55.9533 231.581 56.112 230.872 56.112H229.654ZM239.276 49.91H238.072V49.014H239.276V48.468C239.276 47.7027 239.472 47.124 239.864 46.732C240.256 46.34 240.83 46.144 241.586 46.144H242.118V47.012H241.586C241.138 47.012 240.806 47.1333 240.592 47.376C240.386 47.6093 240.284 47.9733 240.284 48.468V49.014H241.964V49.91H240.284V56H239.276V49.91ZM245.562 56.112C244.778 56.112 244.148 55.8693 243.672 55.384C243.196 54.8987 242.958 54.2593 242.958 53.466V51.548C242.958 50.7547 243.196 50.1153 243.672 49.63C244.157 49.1447 244.796 48.902 245.59 48.902H246.738C247.531 48.902 248.166 49.1447 248.642 49.63C249.127 50.1153 249.37 50.7547 249.37 51.548V53.466C249.37 54.2593 249.127 54.8987 248.642 55.384C248.156 55.8693 247.512 56.112 246.71 56.112H245.562ZM246.71 55.216C247.214 55.216 247.615 55.0573 247.914 54.74C248.212 54.4133 248.362 53.9887 248.362 53.466V51.548C248.362 51.0253 248.212 50.6053 247.914 50.288C247.615 49.9613 247.223 49.798 246.738 49.798H245.59C245.104 49.798 244.712 49.9613 244.414 50.288C244.115 50.6053 243.966 51.0253 243.966 51.548V53.466C243.966 53.998 244.11 54.4227 244.4 54.74C244.689 55.0573 245.076 55.216 245.562 55.216H246.71ZM251.222 49.014H252.202V50.092C252.389 49.7653 252.669 49.4993 253.042 49.294C253.425 49.0887 253.822 48.986 254.232 48.986H254.848V49.896H254.232C253.635 49.896 253.15 50.0873 252.776 50.47C252.412 50.8433 252.23 51.3427 252.23 51.968V56H251.222V49.014ZM259.835 49.014H260.815V50.092C261.002 49.7653 261.282 49.4993 261.655 49.294C262.038 49.0887 262.435 48.986 262.845 48.986H263.461V49.896H262.845C262.248 49.896 261.763 50.0873 261.389 50.47C261.025 50.8433 260.843 51.3427 260.843 51.968V56H259.835V49.014ZM266.917 56.112C266.133 56.112 265.503 55.8833 265.027 55.426C264.551 54.9593 264.313 54.3433 264.313 53.578V51.576C264.313 50.7733 264.551 50.1293 265.027 49.644C265.503 49.1493 266.133 48.902 266.917 48.902H268.065C268.812 48.902 269.414 49.14 269.871 49.616C270.329 50.092 270.557 50.722 270.557 51.506V52.738H265.321V53.578C265.321 54.0633 265.466 54.46 265.755 54.768C266.054 55.0667 266.441 55.216 266.917 55.216H267.981C268.448 55.216 268.826 55.09 269.115 54.838C269.405 54.5767 269.549 54.2313 269.549 53.802H270.529C270.529 54.4927 270.296 55.0527 269.829 55.482C269.363 55.902 268.747 56.112 267.981 56.112H266.917ZM269.549 51.87V51.506C269.549 50.9927 269.414 50.582 269.143 50.274C268.873 49.9567 268.513 49.798 268.065 49.798H266.917C266.441 49.798 266.054 49.9613 265.755 50.288C265.466 50.6147 265.321 51.044 265.321 51.576V51.87H269.549ZM272.318 49.014H273.298V49.966C273.494 49.6487 273.751 49.392 274.068 49.196C274.395 49 274.721 48.902 275.048 48.902H276.056C276.803 48.902 277.405 49.14 277.862 49.616C278.329 50.092 278.562 50.722 278.562 51.506V53.228C278.562 54.096 278.324 54.796 277.848 55.328C277.381 55.8507 276.761 56.112 275.986 56.112H274.978C274.689 56.112 274.385 56.0327 274.068 55.874C273.751 55.706 273.503 55.4913 273.326 55.23V58.786H272.318V49.014ZM275.958 55.216C276.443 55.216 276.831 55.034 277.12 54.67C277.409 54.306 277.554 53.8253 277.554 53.228V51.506C277.554 50.9927 277.414 50.582 277.134 50.274C276.854 49.9567 276.485 49.798 276.028 49.798H275.048C274.656 49.798 274.301 49.952 273.984 50.26C273.667 50.5587 273.447 50.946 273.326 51.422V53.522C273.391 54.0167 273.583 54.4227 273.9 54.74C274.217 55.0573 274.595 55.216 275.034 55.216H275.958ZM282.344 56C281.653 56 281.158 55.8553 280.86 55.566C280.561 55.2673 280.412 54.7773 280.412 54.096V46.2H281.42V54.096C281.42 54.4507 281.49 54.7073 281.63 54.866C281.779 55.0247 282.017 55.104 282.344 55.104H282.82V56H282.344ZM284.914 47.964C284.69 47.964 284.508 47.894 284.368 47.754C284.228 47.614 284.158 47.432 284.158 47.208C284.158 46.984 284.228 46.802 284.368 46.662C284.508 46.522 284.69 46.452 284.914 46.452C285.138 46.452 285.32 46.522 285.46 46.662C285.6 46.802 285.67 46.984 285.67 47.208C285.67 47.432 285.6 47.614 285.46 47.754C285.32 47.894 285.138 47.964 284.914 47.964ZM284.41 49.014H285.418V56H284.41V49.014ZM290.062 56.112C289.297 56.112 288.681 55.8833 288.214 55.426C287.748 54.9593 287.514 54.3433 287.514 53.578V51.576C287.514 50.7733 287.748 50.1293 288.214 49.644C288.681 49.1493 289.292 48.902 290.048 48.902H291.196C291.915 48.902 292.494 49.1027 292.932 49.504C293.371 49.9053 293.59 50.4327 293.59 51.086H292.61C292.61 50.7033 292.48 50.3953 292.218 50.162C291.966 49.9193 291.626 49.798 291.196 49.798H290.048C289.591 49.798 289.222 49.9613 288.942 50.288C288.662 50.6147 288.522 51.044 288.522 51.576V53.578C288.522 54.0727 288.662 54.4693 288.942 54.768C289.232 55.0667 289.605 55.216 290.062 55.216H291.21C291.649 55.216 291.999 55.062 292.26 54.754C292.531 54.446 292.666 54.0353 292.666 53.522H293.646C293.646 54.2967 293.422 54.922 292.974 55.398C292.526 55.874 291.938 56.112 291.21 56.112H290.062ZM297.316 56.112C296.635 56.112 296.089 55.9347 295.678 55.58C295.277 55.2253 295.076 54.7493 295.076 54.152V53.704C295.076 53.116 295.286 52.6447 295.706 52.29C296.126 51.9353 296.682 51.758 297.372 51.758H298.268C298.576 51.758 298.894 51.8047 299.22 51.898C299.547 51.9913 299.827 52.1173 300.06 52.276V51.114C300.06 50.722 299.939 50.4047 299.696 50.162C299.454 49.91 299.132 49.784 298.73 49.784H297.61C297.209 49.784 296.887 49.8773 296.644 50.064C296.402 50.2507 296.28 50.498 296.28 50.806H295.272C295.272 50.2367 295.487 49.7793 295.916 49.434C296.346 49.0793 296.91 48.902 297.61 48.902H298.73C299.421 48.902 299.976 49.1073 300.396 49.518C300.826 49.9193 301.04 50.4513 301.04 51.114V56H300.088V55.02C299.874 55.356 299.589 55.622 299.234 55.818C298.889 56.014 298.53 56.112 298.156 56.112H297.316ZM298.184 55.23C298.623 55.23 299.015 55.0947 299.36 54.824C299.706 54.5533 299.939 54.194 300.06 53.746V53.228C299.874 53.0507 299.612 52.9107 299.276 52.808C298.95 52.696 298.614 52.64 298.268 52.64H297.372C296.99 52.64 296.677 52.738 296.434 52.934C296.201 53.13 296.084 53.3867 296.084 53.704V54.152C296.084 54.4787 296.196 54.74 296.42 54.936C296.644 55.132 296.943 55.23 297.316 55.23H298.184ZM305.824 56C305.086 56 304.554 55.8413 304.228 55.524C303.91 55.2067 303.752 54.684 303.752 53.956V49.91H302.52V49.014H303.752V46.9H304.76V49.014H306.58V49.91H304.76V53.956C304.76 54.3667 304.839 54.6607 304.998 54.838C305.166 55.0153 305.441 55.104 305.824 55.104H306.58V56H305.824ZM309.181 47.964C308.957 47.964 308.775 47.894 308.635 47.754C308.495 47.614 308.425 47.432 308.425 47.208C308.425 46.984 308.495 46.802 308.635 46.662C308.775 46.522 308.957 46.452 309.181 46.452C309.405 46.452 309.587 46.522 309.727 46.662C309.867 46.802 309.937 46.984 309.937 47.208C309.937 47.432 309.867 47.614 309.727 47.754C309.587 47.894 309.405 47.964 309.181 47.964ZM308.677 49.014H309.685V56H308.677V49.014ZM314.386 56.112C313.602 56.112 312.972 55.8693 312.496 55.384C312.02 54.8987 311.782 54.2593 311.782 53.466V51.548C311.782 50.7547 312.02 50.1153 312.496 49.63C312.981 49.1447 313.621 48.902 314.414 48.902H315.562C316.355 48.902 316.99 49.1447 317.466 49.63C317.951 50.1153 318.194 50.7547 318.194 51.548V53.466C318.194 54.2593 317.951 54.8987 317.466 55.384C316.981 55.8693 316.337 56.112 315.534 56.112H314.386ZM315.534 55.216C316.038 55.216 316.439 55.0573 316.738 54.74C317.037 54.4133 317.186 53.9887 317.186 53.466V51.548C317.186 51.0253 317.037 50.6053 316.738 50.288C316.439 49.9613 316.047 49.798 315.562 49.798H314.414C313.929 49.798 313.537 49.9613 313.238 50.288C312.939 50.6053 312.79 51.0253 312.79 51.548V53.466C312.79 53.998 312.935 54.4227 313.224 54.74C313.513 55.0573 313.901 55.216 314.386 55.216H315.534ZM320.046 49.014H321.026V50.05C321.241 49.714 321.521 49.4387 321.866 49.224C322.212 49.0093 322.557 48.902 322.902 48.902H323.854C324.498 48.902 325.016 49.1213 325.408 49.56C325.81 49.9987 326.01 50.5727 326.01 51.282V56H325.002V51.254C325.002 50.8247 324.895 50.4747 324.68 50.204C324.466 49.9333 324.181 49.798 323.826 49.798H322.93C322.492 49.798 322.09 49.9707 321.726 50.316C321.372 50.6613 321.148 51.1047 321.054 51.646V56H320.046V49.014Z" fill="#4864A7"/>
</svg>
