<svg width="512" height="21" viewBox="0 0 512 21" fill="none" xmlns="http://www.w3.org/2000/svg">
<path fill-rule="evenodd" clip-rule="evenodd" d="M255 1V1.58333C255 2.13562 255.448 2.58333 256 2.58333C256.552 2.58333 257 2.13562 257 1.58333V1C257 0.447716 256.552 0 256 0C255.448 0 255 0.447715 255 1ZM257 4.75C257 4.19772 256.552 3.75 256 3.75C255.448 3.75 255 4.19772 255 4.75L255 7.91667C255 8.46895 255.448 8.91667 256 8.91667C256.552 8.91667 257 8.46895 257 7.91667V4.75ZM257 11.0833C257 10.531 256.552 10.0833 256 10.0833C255.448 10.0833 255 10.531 255 11.0833V14.25C255 14.8023 255.448 15.25 256 15.25C256.552 15.25 257 14.8023 257 14.25V11.0833ZM257 17.4167C257 16.8644 256.552 16.4167 256 16.4167C255.448 16.4167 255 16.8644 255 17.4167V17.4915L250.784 13.3059C250.585 13.1156 250.319 13.0103 250.043 13.0127C249.767 13.015 249.503 13.1249 249.308 13.3186C249.113 13.5124 249.002 13.7744 249 14.0484C248.998 14.3223 249.104 14.5863 249.295 14.7833L255.25 20.6941C255.447 20.89 255.715 21 255.994 21C256.273 21 256.54 20.89 256.738 20.6941L262.692 14.7833C262.889 14.5874 263 14.3217 263 14.0446C263 13.7676 262.889 13.5019 262.692 13.3059C262.494 13.11 262.227 13 261.948 13C261.669 13 261.401 13.11 261.204 13.3059L257 17.4789V17.4167Z" fill="#2868F3"/>
<path fill-rule="evenodd" clip-rule="evenodd" d="M275 4V4.33333C275 4.79842 275.448 5.17544 276 5.17544C276.552 5.17544 277 4.79842 277 4.33333V4C277 3.44772 276.552 3 276 3C275.448 3 275 3.44772 275 4ZM277 7C277 6.53492 276.552 6.15789 276 6.1579C275.448 6.1579 275 6.53492 275 7L275 9.66667C275 10.1317 275.448 10.5088 276 10.5088C276.552 10.5088 277 10.1317 277 9.66667V7ZM277 12.3333C277 11.8683 276.552 11.4912 276 11.4912C275.448 11.4912 275 11.8683 275 12.3333V15C275 15.4651 275.448 15.8421 276 15.8421C276.552 15.8421 277 15.4651 277 15V12.3333ZM276.98 17.4987C276.888 17.1141 276.484 16.8246 276 16.8246C275.512 16.8246 275.105 17.1192 275.018 17.5089L270.784 13.3059C270.585 13.1156 270.319 13.0103 270.043 13.0127C269.767 13.015 269.503 13.1249 269.308 13.3186C269.113 13.5124 269.002 13.7744 269 14.0484C268.998 14.3223 269.104 14.5863 269.295 14.7833L275.25 20.6941C275.447 20.89 275.715 21 275.994 21C276.273 21 276.54 20.89 276.738 20.6941L282.692 14.7833C282.889 14.5874 283 14.3217 283 14.0446C283 13.7676 282.889 13.5019 282.692 13.3059C282.494 13.11 282.227 13 281.948 13C281.669 13 281.401 13.11 281.204 13.3059L276.98 17.4987Z" fill="#799FF3"/>
<path fill-rule="evenodd" clip-rule="evenodd" d="M235 4V4.33333C235 4.79842 235.448 5.17544 236 5.17544C236.552 5.17544 237 4.79842 237 4.33333V4C237 3.44772 236.552 3 236 3C235.448 3 235 3.44772 235 4ZM237 7C237 6.53492 236.552 6.15789 236 6.1579C235.448 6.1579 235 6.53492 235 7L235 9.66667C235 10.1317 235.448 10.5088 236 10.5088C236.552 10.5088 237 10.1317 237 9.66667V7ZM237 12.3333C237 11.8683 236.552 11.4912 236 11.4912C235.448 11.4912 235 11.8683 235 12.3333V15C235 15.4651 235.448 15.8421 236 15.8421C236.552 15.8421 237 15.4651 237 15V12.3333ZM236.98 17.4987C236.888 17.1141 236.484 16.8246 236 16.8246C235.512 16.8246 235.105 17.1192 235.018 17.5089L230.784 13.3059C230.585 13.1156 230.319 13.0103 230.043 13.0127C229.767 13.015 229.503 13.1249 229.308 13.3186C229.113 13.5124 229.002 13.7744 229 14.0484C228.998 14.3223 229.104 14.5863 229.295 14.7833L235.25 20.6941C235.447 20.89 235.715 21 235.994 21C236.273 21 236.54 20.89 236.738 20.6941L242.692 14.7833C242.889 14.5874 243 14.3217 243 14.0446C243 13.7676 242.889 13.5019 242.692 13.3059C242.494 13.11 242.227 13 241.948 13C241.669 13 241.401 13.11 241.204 13.3059L236.98 17.4987Z" fill="#799FF3"/>
</svg>
