<svg width="445" height="166" viewBox="0 0 445 166" fill="none" xmlns="http://www.w3.org/2000/svg">
<g filter="url(#filter0_d_642_14344)">
<mask id="path-1-inside-1_642_14344" fill="white">
<path d="M0 4C0 1.79086 1.79086 0 4 0H441C443.209 0 445 1.79086 445 4V154H0V4Z"/>
</mask>
<path d="M0 4C0 1.79086 1.79086 0 4 0H441C443.209 0 445 1.79086 445 4V154H0V4Z" fill="white"/>
<path d="M0 4C0 0.134007 3.13401 -3 7 -3H438C441.866 -3 445 0.134007 445 4C445 3.44772 443.209 3 441 3H4C1.79086 3 0 3.44772 0 4ZM445 154H0H445ZM0 154V0V154ZM445 0V154V0Z" fill="#2868F3" mask="url(#path-1-inside-1_642_14344)"/>
<rect width="445" height="126" transform="translate(0 14)" fill="white"/>
<path d="M40 39C31.729 39 25 45.729 25 54C25 62.271 31.729 69 40 69C48.271 69 55 62.271 55 54C55 45.729 48.271 39 40 39ZM41.5 61.5H38.5V52.5H41.5V61.5ZM41.5 49.5H38.5V46.5H41.5V49.5Z" fill="#2868F3"/>
<path d="M78.632 45.2H87.296C88.672 45.2 89.784 45.576 90.632 46.328C91.48 47.08 91.904 48.072 91.904 49.304V51.008C91.904 51.84 91.648 52.576 91.136 53.216C90.64 53.84 89.944 54.304 89.048 54.608V54.656C89.56 54.96 89.968 55.352 90.272 55.832C90.592 56.296 90.864 56.904 91.088 57.656L92.432 62H89.528L88.232 57.848C88.024 57.128 87.704 56.576 87.272 56.192C86.84 55.808 86.336 55.616 85.76 55.616H81.44V62H78.632V45.2ZM86.672 53.192C87.408 53.192 87.992 52.992 88.424 52.592C88.872 52.192 89.096 51.672 89.096 51.032V49.376C89.096 48.864 88.928 48.448 88.592 48.128C88.256 47.808 87.808 47.648 87.248 47.648H81.44V53.192H86.672ZM99.0307 62.192C98.0547 62.192 97.1907 62.008 96.4387 61.64C95.7027 61.272 95.1267 60.752 94.7107 60.08C94.3107 59.408 94.1107 58.632 94.1107 57.752V54.536C94.1107 53.608 94.3107 52.792 94.7107 52.088C95.1267 51.368 95.7027 50.816 96.4387 50.432C97.1907 50.032 98.0547 49.832 99.0307 49.832H100.951C102.407 49.832 103.575 50.256 104.455 51.104C105.335 51.952 105.775 53.08 105.775 54.488V56.888H96.8707V57.752C96.8707 58.392 97.0627 58.904 97.4467 59.288C97.8467 59.672 98.3747 59.864 99.0307 59.864H100.879C101.519 59.864 102.031 59.712 102.415 59.408C102.815 59.088 103.015 58.672 103.015 58.16H105.727C105.727 59.376 105.279 60.352 104.383 61.088C103.487 61.824 102.311 62.192 100.855 62.192H99.0307ZM103.063 54.824V54.488C103.063 53.784 102.871 53.216 102.487 52.784C102.103 52.352 101.599 52.136 100.975 52.136H99.0307C98.3747 52.136 97.8387 52.368 97.4227 52.832C97.0227 53.28 96.8227 53.872 96.8227 54.608V54.824H103.063ZM112.215 62.192C110.839 62.192 109.735 61.824 108.903 61.088C108.071 60.352 107.655 59.376 107.655 58.16H110.367C110.367 58.672 110.535 59.088 110.871 59.408C111.207 59.712 111.655 59.864 112.215 59.864H114.351C114.895 59.864 115.319 59.776 115.623 59.6C115.943 59.408 116.103 59.152 116.103 58.832V58.304C116.103 58.08 116.007 57.888 115.815 57.728C115.639 57.568 115.391 57.456 115.071 57.392L110.919 56.672C109.991 56.512 109.255 56.176 108.711 55.664C108.167 55.136 107.895 54.528 107.895 53.84V53.048C107.895 52.056 108.287 51.272 109.071 50.696C109.871 50.12 110.967 49.832 112.359 49.832H114.279C115.543 49.832 116.567 50.176 117.351 50.864C118.135 51.552 118.527 52.456 118.527 53.576H115.815C115.815 53.144 115.671 52.8 115.383 52.544C115.111 52.288 114.743 52.16 114.279 52.16H112.383C111.823 52.16 111.391 52.248 111.087 52.424C110.783 52.6 110.631 52.848 110.631 53.168V53.648C110.631 53.872 110.719 54.064 110.895 54.224C111.087 54.384 111.335 54.488 111.639 54.536L115.935 55.304C116.815 55.48 117.519 55.816 118.047 56.312C118.575 56.808 118.839 57.392 118.839 58.064V58.952C118.839 59.944 118.431 60.736 117.615 61.328C116.799 61.904 115.711 62.192 114.351 62.192H112.215ZM125.608 62.192C124.136 62.192 122.952 61.768 122.056 60.92C121.16 60.056 120.712 58.92 120.712 57.512V54.536C120.712 53.608 120.912 52.792 121.312 52.088C121.728 51.368 122.304 50.816 123.04 50.432C123.792 50.032 124.656 49.832 125.632 49.832H127.744C128.72 49.832 129.576 50.032 130.312 50.432C131.064 50.816 131.64 51.368 132.04 52.088C132.456 52.792 132.664 53.608 132.664 54.536V57.512C132.664 58.92 132.208 60.056 131.296 60.92C130.4 61.768 129.2 62.192 127.696 62.192H125.608ZM127.672 59.816C128.344 59.816 128.88 59.592 129.28 59.144C129.696 58.68 129.904 58.08 129.904 57.344V54.68C129.904 53.944 129.704 53.352 129.304 52.904C128.904 52.44 128.368 52.208 127.696 52.208H125.68C125.008 52.208 124.472 52.44 124.072 52.904C123.672 53.352 123.472 53.944 123.472 54.68V57.344C123.472 58.08 123.672 58.68 124.072 59.144C124.472 59.592 124.992 59.816 125.632 59.816H127.672ZM139.143 62.192C137.943 62.192 136.967 61.784 136.215 60.968C135.479 60.136 135.111 59.056 135.111 57.728V50.024H137.871V57.776C137.871 58.384 138.015 58.872 138.303 59.24C138.607 59.608 138.999 59.792 139.479 59.792H140.919C141.527 59.792 142.071 59.552 142.551 59.072C143.047 58.576 143.383 57.936 143.559 57.152V50.024H146.319V62H143.727V60.368C143.375 60.912 142.911 61.352 142.335 61.688C141.775 62.024 141.239 62.192 140.727 62.192H139.143ZM149.388 50.024H151.956V51.656C152.276 51.16 152.732 50.76 153.324 50.456C153.932 50.136 154.556 49.976 155.196 49.976H156.636V52.376H155.196C154.284 52.376 153.548 52.656 152.988 53.216C152.428 53.776 152.148 54.504 152.148 55.4V62H149.388V50.024ZM162.381 62.192C160.909 62.192 159.725 61.768 158.829 60.92C157.949 60.072 157.509 58.952 157.509 57.56V54.536C157.509 53.608 157.709 52.792 158.109 52.088C158.509 51.368 159.077 50.816 159.813 50.432C160.549 50.032 161.397 49.832 162.357 49.832H164.277C165.653 49.832 166.757 50.232 167.589 51.032C168.437 51.816 168.861 52.856 168.861 54.152H166.149C166.149 53.576 165.973 53.112 165.621 52.76C165.285 52.392 164.837 52.208 164.277 52.208H162.381C161.757 52.208 161.245 52.44 160.845 52.904C160.461 53.368 160.269 53.968 160.269 54.704V57.392C160.269 58.112 160.461 58.696 160.845 59.144C161.245 59.592 161.765 59.816 162.405 59.816H164.301C164.893 59.816 165.365 59.6 165.717 59.168C166.085 58.736 166.269 58.176 166.269 57.488H168.981C168.981 58.896 168.549 60.032 167.685 60.896C166.837 61.76 165.709 62.192 164.301 62.192H162.381ZM175.671 62.192C174.695 62.192 173.831 62.008 173.079 61.64C172.343 61.272 171.767 60.752 171.351 60.08C170.951 59.408 170.751 58.632 170.751 57.752V54.536C170.751 53.608 170.951 52.792 171.351 52.088C171.767 51.368 172.343 50.816 173.079 50.432C173.831 50.032 174.695 49.832 175.671 49.832H177.591C179.047 49.832 180.215 50.256 181.095 51.104C181.975 51.952 182.415 53.08 182.415 54.488V56.888H173.511V57.752C173.511 58.392 173.703 58.904 174.087 59.288C174.487 59.672 175.015 59.864 175.671 59.864H177.519C178.159 59.864 178.671 59.712 179.055 59.408C179.455 59.088 179.655 58.672 179.655 58.16H182.367C182.367 59.376 181.919 60.352 181.023 61.088C180.127 61.824 178.951 62.192 177.495 62.192H175.671ZM179.703 54.824V54.488C179.703 53.784 179.511 53.216 179.127 52.784C178.743 52.352 178.239 52.136 177.615 52.136H175.671C175.015 52.136 174.479 52.368 174.063 52.832C173.663 53.28 173.463 53.872 173.463 54.608V54.824H179.703ZM191.695 45.2H200.359C201.735 45.2 202.847 45.576 203.695 46.328C204.543 47.08 204.967 48.072 204.967 49.304V51.008C204.967 51.84 204.711 52.576 204.199 53.216C203.703 53.84 203.007 54.304 202.111 54.608V54.656C202.623 54.96 203.031 55.352 203.335 55.832C203.655 56.296 203.927 56.904 204.151 57.656L205.495 62H202.591L201.295 57.848C201.087 57.128 200.767 56.576 200.335 56.192C199.903 55.808 199.399 55.616 198.823 55.616H194.503V62H191.695V45.2ZM199.735 53.192C200.471 53.192 201.055 52.992 201.487 52.592C201.935 52.192 202.159 51.672 202.159 51.032V49.376C202.159 48.864 201.991 48.448 201.655 48.128C201.319 47.808 200.871 47.648 200.311 47.648H194.503V53.192H199.735ZM212.093 62.192C211.117 62.192 210.253 62.008 209.501 61.64C208.765 61.272 208.189 60.752 207.773 60.08C207.373 59.408 207.173 58.632 207.173 57.752V54.536C207.173 53.608 207.373 52.792 207.773 52.088C208.189 51.368 208.765 50.816 209.501 50.432C210.253 50.032 211.117 49.832 212.093 49.832H214.013C215.469 49.832 216.637 50.256 217.517 51.104C218.397 51.952 218.837 53.08 218.837 54.488V56.888H209.933V57.752C209.933 58.392 210.125 58.904 210.509 59.288C210.909 59.672 211.437 59.864 212.093 59.864H213.941C214.581 59.864 215.093 59.712 215.477 59.408C215.877 59.088 216.077 58.672 216.077 58.16H218.789C218.789 59.376 218.341 60.352 217.445 61.088C216.549 61.824 215.373 62.192 213.917 62.192H212.093ZM216.125 54.824V54.488C216.125 53.784 215.933 53.216 215.549 52.784C215.165 52.352 214.661 52.136 214.037 52.136H212.093C211.437 52.136 210.901 52.368 210.485 52.832C210.085 53.28 209.885 53.872 209.885 54.608V54.824H216.125ZM221.317 50.024H223.885V51.44C224.221 50.96 224.653 50.576 225.181 50.288C225.725 49.984 226.253 49.832 226.765 49.832H228.349C229.741 49.832 230.861 50.256 231.709 51.104C232.573 51.936 233.005 53.04 233.005 54.416V57.2C233.005 58.704 232.581 59.912 231.733 60.824C230.885 61.736 229.757 62.192 228.349 62.192H226.741C226.277 62.192 225.797 62.08 225.301 61.856C224.805 61.616 224.397 61.304 224.077 60.92V66.8H221.317V50.024ZM228.061 59.816C228.717 59.816 229.245 59.56 229.645 59.048C230.061 58.536 230.269 57.864 230.269 57.032V54.584C230.269 53.88 230.069 53.312 229.669 52.88C229.269 52.432 228.741 52.208 228.085 52.208H226.549C226.005 52.208 225.501 52.424 225.037 52.856C224.589 53.272 224.269 53.816 224.077 54.488V57.272C224.157 58.024 224.421 58.64 224.869 59.12C225.333 59.584 225.885 59.816 226.525 59.816H228.061ZM239.455 62C238.111 62 237.127 61.72 236.503 61.16C235.895 60.584 235.591 59.68 235.591 58.448V45.2H238.351V58.328C238.351 58.792 238.447 59.128 238.639 59.336C238.831 59.528 239.151 59.624 239.599 59.624H240.751V62H239.455ZM244.281 48.68C243.737 48.68 243.297 48.52 242.961 48.2C242.641 47.864 242.481 47.44 242.481 46.928C242.481 46.416 242.641 46 242.961 45.68C243.297 45.344 243.737 45.176 244.281 45.176C244.825 45.176 245.265 45.344 245.601 45.68C245.937 46 246.105 46.416 246.105 46.928C246.105 47.44 245.937 47.864 245.601 48.2C245.265 48.52 244.825 48.68 244.281 48.68ZM242.913 50.024H245.673V62H242.913V50.024ZM253.576 62.192C252.104 62.192 250.92 61.768 250.024 60.92C249.144 60.072 248.704 58.952 248.704 57.56V54.536C248.704 53.608 248.904 52.792 249.304 52.088C249.704 51.368 250.272 50.816 251.008 50.432C251.744 50.032 252.592 49.832 253.552 49.832H255.472C256.848 49.832 257.952 50.232 258.784 51.032C259.632 51.816 260.056 52.856 260.056 54.152H257.344C257.344 53.576 257.168 53.112 256.816 52.76C256.48 52.392 256.032 52.208 255.472 52.208H253.576C252.952 52.208 252.44 52.44 252.04 52.904C251.656 53.368 251.464 53.968 251.464 54.704V57.392C251.464 58.112 251.656 58.696 252.04 59.144C252.44 59.592 252.96 59.816 253.6 59.816H255.496C256.088 59.816 256.56 59.6 256.912 59.168C257.28 58.736 257.464 58.176 257.464 57.488H260.176C260.176 58.896 259.744 60.032 258.88 60.896C258.032 61.76 256.904 62.192 255.496 62.192H253.576ZM266.099 62.192C264.883 62.192 263.899 61.888 263.147 61.28C262.411 60.656 262.043 59.832 262.043 58.808V57.944C262.043 56.936 262.427 56.128 263.195 55.52C263.979 54.912 265.003 54.608 266.267 54.608H267.755C268.203 54.608 268.683 54.672 269.195 54.8C269.707 54.928 270.163 55.096 270.563 55.304V53.816C270.563 53.32 270.403 52.92 270.083 52.616C269.763 52.312 269.347 52.16 268.835 52.16H266.819C266.291 52.16 265.867 52.288 265.547 52.544C265.227 52.784 265.067 53.104 265.067 53.504H262.379C262.379 52.4 262.787 51.512 263.603 50.84C264.419 50.168 265.491 49.832 266.819 49.832H268.835C270.179 49.832 271.259 50.2 272.075 50.936C272.891 51.656 273.299 52.616 273.299 53.816V62H270.731V60.488C270.347 61 269.867 61.416 269.291 61.736C268.715 62.04 268.147 62.192 267.587 62.192H266.099ZM267.755 60.032C268.395 60.032 268.971 59.856 269.483 59.504C269.995 59.136 270.355 58.656 270.563 58.064V57.488C270.291 57.264 269.907 57.088 269.411 56.96C268.915 56.816 268.395 56.744 267.851 56.744H266.339C265.859 56.744 265.467 56.864 265.163 57.104C264.875 57.344 264.731 57.656 264.731 58.04V58.712C264.731 59.112 264.883 59.432 265.187 59.672C265.491 59.912 265.891 60.032 266.387 60.032H267.755ZM281.295 62C279.935 62 278.943 61.696 278.319 61.088C277.695 60.48 277.383 59.52 277.383 58.208V52.4H275.271V50.024H277.455V46.4H280.143V50.024H283.263V52.4H280.143V58.112C280.143 58.64 280.247 59.024 280.455 59.264C280.663 59.504 280.991 59.624 281.439 59.624H283.263V62H281.295ZM287.664 48.68C287.12 48.68 286.68 48.52 286.344 48.2C286.024 47.864 285.864 47.44 285.864 46.928C285.864 46.416 286.024 46 286.344 45.68C286.68 45.344 287.12 45.176 287.664 45.176C288.208 45.176 288.648 45.344 288.984 45.68C289.32 46 289.488 46.416 289.488 46.928C289.488 47.44 289.32 47.864 288.984 48.2C288.648 48.52 288.208 48.68 287.664 48.68ZM286.296 50.024H289.056V62H286.296V50.024ZM296.983 62.192C295.511 62.192 294.327 61.768 293.431 60.92C292.535 60.056 292.087 58.92 292.087 57.512V54.536C292.087 53.608 292.287 52.792 292.687 52.088C293.103 51.368 293.679 50.816 294.415 50.432C295.167 50.032 296.031 49.832 297.007 49.832H299.119C300.095 49.832 300.951 50.032 301.687 50.432C302.439 50.816 303.015 51.368 303.415 52.088C303.831 52.792 304.039 53.608 304.039 54.536V57.512C304.039 58.92 303.583 60.056 302.671 60.92C301.775 61.768 300.575 62.192 299.071 62.192H296.983ZM299.047 59.816C299.719 59.816 300.255 59.592 300.655 59.144C301.071 58.68 301.279 58.08 301.279 57.344V54.68C301.279 53.944 301.079 53.352 300.679 52.904C300.279 52.44 299.743 52.208 299.071 52.208H297.055C296.383 52.208 295.847 52.44 295.447 52.904C295.047 53.352 294.847 53.944 294.847 54.68V57.344C294.847 58.08 295.047 58.68 295.447 59.144C295.847 59.592 296.367 59.816 297.007 59.816H299.047ZM306.63 50.024H309.198V51.584C309.55 51.056 310.014 50.632 310.59 50.312C311.166 49.992 311.742 49.832 312.318 49.832H313.806C315.038 49.832 316.022 50.224 316.758 51.008C317.51 51.792 317.886 52.824 317.886 54.104V62H315.126V54.176C315.126 53.6 314.974 53.136 314.67 52.784C314.382 52.416 313.998 52.232 313.518 52.232H312.03C311.406 52.232 310.846 52.472 310.35 52.952C309.854 53.416 309.534 54.016 309.39 54.752V62H306.63V50.024ZM329.313 48.68C328.769 48.68 328.329 48.52 327.993 48.2C327.673 47.864 327.513 47.44 327.513 46.928C327.513 46.416 327.673 46 327.993 45.68C328.329 45.344 328.769 45.176 329.313 45.176C329.857 45.176 330.297 45.344 330.633 45.68C330.969 46 331.137 46.416 331.137 46.928C331.137 47.44 330.969 47.864 330.633 48.2C330.297 48.52 329.857 48.68 329.313 48.68ZM327.945 50.024H330.705V62H327.945V50.024ZM334.216 50.024H336.784V51.584C337.136 51.056 337.6 50.632 338.176 50.312C338.752 49.992 339.328 49.832 339.904 49.832H341.392C342.624 49.832 343.608 50.224 344.344 51.008C345.096 51.792 345.472 52.824 345.472 54.104V62H342.712V54.176C342.712 53.6 342.56 53.136 342.256 52.784C341.968 52.416 341.584 52.232 341.104 52.232H339.616C338.992 52.232 338.432 52.472 337.936 52.952C337.44 53.416 337.12 54.016 336.976 54.752V62H334.216V50.024ZM350.195 48.68C349.651 48.68 349.211 48.52 348.875 48.2C348.555 47.864 348.395 47.44 348.395 46.928C348.395 46.416 348.555 46 348.875 45.68C349.211 45.344 349.651 45.176 350.195 45.176C350.739 45.176 351.179 45.344 351.515 45.68C351.851 46 352.019 46.416 352.019 46.928C352.019 47.44 351.851 47.864 351.515 48.2C351.179 48.52 350.739 48.68 350.195 48.68ZM348.827 50.024H351.587V62H348.827V50.024ZM360.163 62C358.803 62 357.811 61.696 357.187 61.088C356.563 60.48 356.251 59.52 356.251 58.208V52.4H354.139V50.024H356.323V46.4H359.011V50.024H362.131V52.4H359.011V58.112C359.011 58.64 359.115 59.024 359.323 59.264C359.531 59.504 359.859 59.624 360.307 59.624H362.131V62H360.163ZM366.531 48.68C365.987 48.68 365.547 48.52 365.211 48.2C364.891 47.864 364.731 47.44 364.731 46.928C364.731 46.416 364.891 46 365.211 45.68C365.547 45.344 365.987 45.176 366.531 45.176C367.075 45.176 367.515 45.344 367.851 45.68C368.187 46 368.355 46.416 368.355 46.928C368.355 47.44 368.187 47.864 367.851 48.2C367.515 48.52 367.075 48.68 366.531 48.68ZM365.163 50.024H367.923V62H365.163V50.024ZM375.106 62.192C373.89 62.192 372.906 61.888 372.154 61.28C371.418 60.656 371.05 59.832 371.05 58.808V57.944C371.05 56.936 371.434 56.128 372.202 55.52C372.986 54.912 374.01 54.608 375.274 54.608H376.762C377.21 54.608 377.69 54.672 378.202 54.8C378.714 54.928 379.17 55.096 379.57 55.304V53.816C379.57 53.32 379.41 52.92 379.09 52.616C378.77 52.312 378.354 52.16 377.842 52.16H375.826C375.298 52.16 374.874 52.288 374.554 52.544C374.234 52.784 374.074 53.104 374.074 53.504H371.386C371.386 52.4 371.794 51.512 372.61 50.84C373.426 50.168 374.498 49.832 375.826 49.832H377.842C379.186 49.832 380.266 50.2 381.082 50.936C381.898 51.656 382.306 52.616 382.306 53.816V62H379.738V60.488C379.354 61 378.874 61.416 378.298 61.736C377.722 62.04 377.154 62.192 376.594 62.192H375.106ZM376.762 60.032C377.402 60.032 377.978 59.856 378.49 59.504C379.002 59.136 379.362 58.656 379.57 58.064V57.488C379.298 57.264 378.914 57.088 378.418 56.96C377.922 56.816 377.402 56.744 376.858 56.744H375.346C374.866 56.744 374.474 56.864 374.17 57.104C373.882 57.344 373.738 57.656 373.738 58.04V58.712C373.738 59.112 373.89 59.432 374.194 59.672C374.498 59.912 374.898 60.032 375.394 60.032H376.762ZM390.303 62C388.943 62 387.951 61.696 387.327 61.088C386.703 60.48 386.391 59.52 386.391 58.208V52.4H384.279V50.024H386.463V46.4H389.151V50.024H392.271V52.4H389.151V58.112C389.151 58.64 389.255 59.024 389.463 59.264C389.671 59.504 389.999 59.624 390.447 59.624H392.271V62H390.303ZM398.937 62.192C397.961 62.192 397.097 62.008 396.345 61.64C395.609 61.272 395.033 60.752 394.617 60.08C394.217 59.408 394.017 58.632 394.017 57.752V54.536C394.017 53.608 394.217 52.792 394.617 52.088C395.033 51.368 395.609 50.816 396.345 50.432C397.097 50.032 397.961 49.832 398.937 49.832H400.857C402.313 49.832 403.481 50.256 404.361 51.104C405.241 51.952 405.681 53.08 405.681 54.488V56.888H396.777V57.752C396.777 58.392 396.969 58.904 397.353 59.288C397.753 59.672 398.281 59.864 398.937 59.864H400.785C401.425 59.864 401.937 59.712 402.321 59.408C402.721 59.088 402.921 58.672 402.921 58.16H405.633C405.633 59.376 405.185 60.352 404.289 61.088C403.393 61.824 402.217 62.192 400.761 62.192H398.937ZM402.969 54.824V54.488C402.969 53.784 402.777 53.216 402.393 52.784C402.009 52.352 401.505 52.136 400.881 52.136H398.937C398.281 52.136 397.745 52.368 397.329 52.832C396.929 53.28 396.729 53.872 396.729 54.608V54.824H402.969ZM412.241 62.192C410.881 62.192 409.777 61.768 408.929 60.92C408.097 60.056 407.681 58.928 407.681 57.536V54.752C407.681 53.776 407.881 52.92 408.281 52.184C408.681 51.432 409.241 50.856 409.961 50.456C410.697 50.04 411.537 49.832 412.481 49.832H413.945C414.441 49.832 414.929 49.944 415.409 50.168C415.905 50.392 416.313 50.688 416.633 51.056V45.2H419.369V62H416.801V60.344C416.465 60.904 416.017 61.352 415.457 61.688C414.897 62.024 414.329 62.192 413.753 62.192H412.241ZM413.969 59.816C414.657 59.816 415.249 59.544 415.745 59C416.257 58.44 416.553 57.752 416.633 56.936V54.536C416.521 53.848 416.249 53.288 415.817 52.856C415.401 52.424 414.897 52.208 414.305 52.208H412.769C412.065 52.208 411.497 52.456 411.065 52.952C410.649 53.448 410.441 54.096 410.441 54.896V57.368C410.441 58.104 410.633 58.696 411.017 59.144C411.417 59.592 411.921 59.816 412.529 59.816H413.969Z" fill="#2868F3"/>
<path d="M78.036 84.2H84.77V85.376H79.366V88.638H84.252V89.814H79.366V94H78.036V84.2ZM85.6089 87.014H86.8549V88.036C87.0416 87.728 87.3122 87.476 87.6669 87.28C88.0309 87.084 88.4089 86.986 88.8009 86.986H89.5289V88.148H88.8009C88.2316 88.148 87.7742 88.3253 87.4289 88.68C87.0836 89.0253 86.9109 89.4827 86.9109 90.052V94H85.6089V87.014ZM92.9398 94.112C92.1184 94.112 91.4558 93.8647 90.9518 93.37C90.4571 92.8753 90.2098 92.2267 90.2098 91.424V89.604C90.2098 88.792 90.4618 88.1387 90.9658 87.644C91.4698 87.1493 92.1371 86.902 92.9678 86.902H94.1438C94.9744 86.902 95.6418 87.1493 96.1458 87.644C96.6498 88.1387 96.9018 88.792 96.9018 89.604V91.424C96.9018 92.2267 96.6451 92.8753 96.1318 93.37C95.6278 93.8647 94.9604 94.112 94.1298 94.112H92.9398ZM94.1158 92.964C94.5638 92.964 94.9231 92.8193 95.1938 92.53C95.4644 92.2407 95.5998 91.8533 95.5998 91.368V89.646C95.5998 89.1607 95.4644 88.7733 95.1938 88.484C94.9324 88.1947 94.5824 88.05 94.1438 88.05H92.9678C92.5291 88.05 92.1744 88.1947 91.9038 88.484C91.6424 88.7733 91.5118 89.1607 91.5118 89.646V91.368C91.5118 91.8533 91.6424 92.2407 91.9038 92.53C92.1651 92.8193 92.5151 92.964 92.9538 92.964H94.1158ZM106.354 86.902C106.998 86.902 107.511 87.112 107.894 87.532C108.276 87.9427 108.468 88.5073 108.468 89.226V94H107.166V89.212C107.166 88.8573 107.082 88.5773 106.914 88.372C106.746 88.1573 106.526 88.05 106.256 88.05H105.528C105.173 88.05 104.874 88.176 104.632 88.428C104.398 88.6707 104.249 89.0067 104.184 89.436V94H102.868V89.268C102.868 88.8853 102.788 88.5867 102.63 88.372C102.48 88.1573 102.275 88.05 102.014 88.05H101.3C100.945 88.05 100.637 88.204 100.376 88.512C100.114 88.8107 99.9508 89.2073 99.8855 89.702V94H98.5835V87.014H99.8295V87.952C100.016 87.6253 100.245 87.3687 100.516 87.182C100.796 86.9953 101.08 86.902 101.37 86.902H102.182C102.555 86.902 102.877 86.9953 103.148 87.182C103.428 87.3687 103.647 87.6347 103.806 87.98C104.011 87.6253 104.263 87.3593 104.562 87.182C104.86 86.9953 105.182 86.902 105.528 86.902H106.354ZM116.257 94.112C115.501 94.112 114.894 93.9067 114.437 93.496C113.98 93.076 113.751 92.5253 113.751 91.844H115.025C115.025 92.1893 115.137 92.4693 115.361 92.684C115.585 92.8987 115.884 93.006 116.257 93.006H117.489C117.844 93.006 118.128 92.9407 118.343 92.81C118.558 92.67 118.665 92.488 118.665 92.264V91.858C118.665 91.7087 118.6 91.578 118.469 91.466C118.348 91.3447 118.189 91.2653 117.993 91.228L115.571 90.808C115.058 90.7147 114.647 90.5233 114.339 90.234C114.031 89.9353 113.877 89.59 113.877 89.198V88.736C113.877 88.1853 114.096 87.742 114.535 87.406C114.974 87.07 115.562 86.902 116.299 86.902H117.475C118.175 86.902 118.735 87.0933 119.155 87.476C119.584 87.8587 119.799 88.3673 119.799 89.002H118.525C118.516 88.7033 118.413 88.4653 118.217 88.288C118.03 88.1013 117.783 88.008 117.475 88.008H116.313C115.968 88.008 115.692 88.078 115.487 88.218C115.291 88.358 115.193 88.5447 115.193 88.778V89.128C115.193 89.2773 115.258 89.408 115.389 89.52C115.52 89.632 115.688 89.7113 115.893 89.758L118.343 90.192C118.828 90.276 119.22 90.4627 119.519 90.752C119.827 91.0413 119.981 91.3773 119.981 91.76V92.306C119.981 92.8473 119.752 93.286 119.295 93.622C118.838 93.9487 118.236 94.112 117.489 94.112H116.257ZM123.975 94.112C123.154 94.112 122.491 93.8647 121.987 93.37C121.492 92.8753 121.245 92.2267 121.245 91.424V89.604C121.245 88.792 121.497 88.1387 122.001 87.644C122.505 87.1493 123.172 86.902 124.003 86.902H125.179C126.01 86.902 126.677 87.1493 127.181 87.644C127.685 88.1387 127.937 88.792 127.937 89.604V91.424C127.937 92.2267 127.68 92.8753 127.167 93.37C126.663 93.8647 125.996 94.112 125.165 94.112H123.975ZM125.151 92.964C125.599 92.964 125.958 92.8193 126.229 92.53C126.5 92.2407 126.635 91.8533 126.635 91.368V89.646C126.635 89.1607 126.5 88.7733 126.229 88.484C125.968 88.1947 125.618 88.05 125.179 88.05H124.003C123.564 88.05 123.21 88.1947 122.939 88.484C122.678 88.7733 122.547 89.1607 122.547 89.646V91.368C122.547 91.8533 122.678 92.2407 122.939 92.53C123.2 92.8193 123.55 92.964 123.989 92.964H125.151ZM131.803 94.112C131.121 94.112 130.571 93.8833 130.151 93.426C129.74 92.9687 129.535 92.3667 129.535 91.62V87.014H130.837V91.648C130.837 92.04 130.935 92.3573 131.131 92.6C131.327 92.8427 131.583 92.964 131.901 92.964H132.741C133.133 92.964 133.492 92.8053 133.819 92.488C134.145 92.1707 134.36 91.7693 134.463 91.284V87.014H135.765V94H134.533V92.992C134.309 93.3187 134.029 93.5893 133.693 93.804C133.357 94.0093 133.025 94.112 132.699 94.112H131.803ZM137.726 87.014H138.972V88.036C139.159 87.728 139.429 87.476 139.784 87.28C140.148 87.084 140.526 86.986 140.918 86.986H141.646V88.148H140.918C140.349 88.148 139.891 88.3253 139.546 88.68C139.201 89.0253 139.028 89.4827 139.028 90.052V94H137.726V87.014ZM145.015 94.112C144.212 94.112 143.564 93.874 143.069 93.398C142.574 92.9127 142.327 92.278 142.327 91.494V89.618C142.327 88.7967 142.57 88.1387 143.055 87.644C143.55 87.1493 144.198 86.902 145.001 86.902H146.135C146.9 86.902 147.516 87.1167 147.983 87.546C148.45 87.9753 148.683 88.5447 148.683 89.254H147.395C147.395 88.89 147.278 88.6007 147.045 88.386C146.821 88.162 146.518 88.05 146.135 88.05H145.015C144.604 88.05 144.268 88.1993 144.007 88.498C143.755 88.7873 143.629 89.1747 143.629 89.66V91.452C143.629 91.9093 143.76 92.278 144.021 92.558C144.282 92.8287 144.618 92.964 145.029 92.964H146.149C146.541 92.964 146.854 92.8287 147.087 92.558C147.33 92.278 147.451 91.9093 147.451 91.452H148.739C148.739 92.2453 148.501 92.8893 148.025 93.384C147.549 93.8693 146.924 94.112 146.149 94.112H145.015ZM152.672 94.112C151.851 94.112 151.188 93.8787 150.684 93.412C150.19 92.936 149.942 92.3153 149.942 91.55V89.618C149.942 88.7967 150.19 88.1387 150.684 87.644C151.188 87.1493 151.851 86.902 152.672 86.902H153.82C154.614 86.902 155.253 87.1447 155.738 87.63C156.224 88.1153 156.466 88.7593 156.466 89.562V90.878H151.244V91.55C151.244 91.9793 151.375 92.3247 151.636 92.586C151.898 92.8473 152.243 92.978 152.672 92.978H153.75C154.17 92.978 154.511 92.8707 154.772 92.656C155.034 92.432 155.164 92.138 155.164 91.774H156.438C156.438 92.474 156.191 93.0387 155.696 93.468C155.202 93.8973 154.548 94.112 153.736 94.112H152.672ZM155.164 89.842V89.562C155.164 89.0953 155.038 88.722 154.786 88.442C154.544 88.162 154.222 88.022 153.82 88.022H152.672C152.243 88.022 151.898 88.1713 151.636 88.47C151.375 88.7593 151.244 89.1467 151.244 89.632V89.842H155.164ZM164.238 94.112C163.435 94.112 162.786 93.874 162.292 93.398C161.797 92.9127 161.55 92.278 161.55 91.494V89.618C161.55 88.7967 161.792 88.1387 162.278 87.644C162.772 87.1493 163.421 86.902 164.224 86.902H165.358C166.123 86.902 166.739 87.1167 167.206 87.546C167.672 87.9753 167.906 88.5447 167.906 89.254H166.618C166.618 88.89 166.501 88.6007 166.268 88.386C166.044 88.162 165.74 88.05 165.358 88.05H164.238C163.827 88.05 163.491 88.1993 163.23 88.498C162.978 88.7873 162.852 89.1747 162.852 89.66V91.452C162.852 91.9093 162.982 92.278 163.244 92.558C163.505 92.8287 163.841 92.964 164.252 92.964H165.372C165.764 92.964 166.076 92.8287 166.31 92.558C166.552 92.278 166.674 91.9093 166.674 91.452H167.962C167.962 92.2453 167.724 92.8893 167.248 93.384C166.772 93.8693 166.146 94.112 165.372 94.112H164.238ZM171.531 94C170.794 94 170.262 93.846 169.935 93.538C169.608 93.2207 169.445 92.712 169.445 92.012V84.2H170.747V91.97C170.747 92.2873 170.812 92.516 170.943 92.656C171.074 92.796 171.288 92.866 171.587 92.866H172.147V94H171.531ZM175.512 94.112C174.83 94.112 174.28 93.8833 173.86 93.426C173.449 92.9687 173.244 92.3667 173.244 91.62V87.014H174.546V91.648C174.546 92.04 174.644 92.3573 174.84 92.6C175.036 92.8427 175.292 92.964 175.61 92.964H176.45C176.842 92.964 177.201 92.8053 177.528 92.488C177.854 92.1707 178.069 91.7693 178.172 91.284V87.014H179.474V94H178.242V92.992C178.018 93.3187 177.738 93.5893 177.402 93.804C177.066 94.0093 176.734 94.112 176.408 94.112H175.512ZM183.591 94.112C182.835 94.112 182.228 93.9067 181.771 93.496C181.314 93.076 181.085 92.5253 181.085 91.844H182.359C182.359 92.1893 182.471 92.4693 182.695 92.684C182.919 92.8987 183.218 93.006 183.591 93.006H184.823C185.178 93.006 185.462 92.9407 185.677 92.81C185.892 92.67 185.999 92.488 185.999 92.264V91.858C185.999 91.7087 185.934 91.578 185.803 91.466C185.682 91.3447 185.523 91.2653 185.327 91.228L182.905 90.808C182.392 90.7147 181.981 90.5233 181.673 90.234C181.365 89.9353 181.211 89.59 181.211 89.198V88.736C181.211 88.1853 181.43 87.742 181.869 87.406C182.308 87.07 182.896 86.902 183.633 86.902H184.809C185.509 86.902 186.069 87.0933 186.489 87.476C186.918 87.8587 187.133 88.3673 187.133 89.002H185.859C185.85 88.7033 185.747 88.4653 185.551 88.288C185.364 88.1013 185.117 88.008 184.809 88.008H183.647C183.302 88.008 183.026 88.078 182.821 88.218C182.625 88.358 182.527 88.5447 182.527 88.778V89.128C182.527 89.2773 182.592 89.408 182.723 89.52C182.854 89.632 183.022 89.7113 183.227 89.758L185.677 90.192C186.162 90.276 186.554 90.4627 186.853 90.752C187.161 91.0413 187.315 91.3773 187.315 91.76V92.306C187.315 92.8473 187.086 93.286 186.629 93.622C186.172 93.9487 185.57 94.112 184.823 94.112H183.591ZM191.619 94C190.854 94 190.298 93.832 189.953 93.496C189.617 93.16 189.449 92.6187 189.449 91.872V88.148H188.217V87.014H189.463V84.9H190.751V87.014H192.571V88.148H190.751V91.844C190.751 92.208 190.821 92.4693 190.961 92.628C191.11 92.7867 191.348 92.866 191.675 92.866H192.571V94H191.619ZM196.477 94.112C195.656 94.112 194.993 93.8787 194.489 93.412C193.994 92.936 193.747 92.3153 193.747 91.55V89.618C193.747 88.7967 193.994 88.1387 194.489 87.644C194.993 87.1493 195.656 86.902 196.477 86.902H197.625C198.418 86.902 199.058 87.1447 199.543 87.63C200.028 88.1153 200.271 88.7593 200.271 89.562V90.878H195.049V91.55C195.049 91.9793 195.18 92.3247 195.441 92.586C195.702 92.8473 196.048 92.978 196.477 92.978H197.555C197.975 92.978 198.316 92.8707 198.577 92.656C198.838 92.432 198.969 92.138 198.969 91.774H200.243C200.243 92.474 199.996 93.0387 199.501 93.468C199.006 93.8973 198.353 94.112 197.541 94.112H196.477ZM198.969 89.842V89.562C198.969 89.0953 198.843 88.722 198.591 88.442C198.348 88.162 198.026 88.022 197.625 88.022H196.477C196.048 88.022 195.702 88.1713 195.441 88.47C195.18 88.7593 195.049 89.1467 195.049 89.632V89.842H198.969ZM201.875 87.014H203.121V88.036C203.307 87.728 203.578 87.476 203.933 87.28C204.297 87.084 204.675 86.986 205.067 86.986H205.795V88.148H205.067C204.497 88.148 204.04 88.3253 203.695 88.68C203.349 89.0253 203.177 89.4827 203.177 90.052V94H201.875V87.014ZM212.568 94C211.943 94 211.541 93.636 211.364 92.908L209.95 87.014H211.924L212.778 91.452H212.806L214.332 87.182H215.074C215.289 87.182 215.461 87.2287 215.592 87.322C215.723 87.4153 215.825 87.56 215.9 87.756L217.202 91.452H217.23L218.07 87.014H220.044L218.658 92.908C218.49 93.636 218.089 94 217.454 94H216.586L215.032 89.576L213.422 94H212.568ZM223.59 94.112C223.002 94.112 222.48 94 222.022 93.776C221.574 93.5427 221.224 93.216 220.972 92.796C220.73 92.376 220.608 91.8907 220.608 91.34V89.702C220.608 89.1513 220.734 88.666 220.986 88.246C221.238 87.8167 221.588 87.4853 222.036 87.252C222.494 87.0187 223.016 86.902 223.604 86.902H224.864C225.452 86.902 225.97 87.0187 226.418 87.252C226.876 87.4853 227.23 87.8167 227.482 88.246C227.734 88.666 227.86 89.1513 227.86 89.702V91.34C227.86 91.8907 227.734 92.376 227.482 92.796C227.23 93.216 226.876 93.5427 226.418 93.776C225.97 94 225.448 94.112 224.85 94.112H223.59ZM224.822 92.474C225.168 92.474 225.443 92.3573 225.648 92.124C225.854 91.8813 225.956 91.5687 225.956 91.186V89.828C225.956 89.4453 225.854 89.1373 225.648 88.904C225.443 88.6613 225.172 88.54 224.836 88.54H223.632C223.296 88.54 223.026 88.6613 222.82 88.904C222.615 89.1373 222.512 89.4453 222.512 89.828V91.186C222.512 91.5687 222.615 91.8813 222.82 92.124C223.026 92.3573 223.292 92.474 223.618 92.474H224.822ZM229.201 87.014H230.965V87.91C231.142 87.6393 231.394 87.42 231.721 87.252C232.057 87.0747 232.407 86.986 232.771 86.986H233.723V88.638H232.771C232.276 88.638 231.875 88.7873 231.567 89.086C231.259 89.3847 231.105 89.7673 231.105 90.234V94H229.201V87.014ZM239.39 94L237.206 91.2L236.464 91.942V94H234.56V84.2H236.464V89.8L239.222 87.014H241.434L238.438 89.982L241.546 94H239.39ZM244.673 94.112C244.085 94.112 243.562 94.0047 243.105 93.79C242.657 93.566 242.307 93.258 242.055 92.866C241.803 92.4647 241.677 92.0073 241.677 91.494V89.688C241.677 89.1373 241.803 88.652 242.055 88.232C242.307 87.812 242.657 87.4853 243.105 87.252C243.562 87.0187 244.085 86.902 244.673 86.902H245.793C246.689 86.902 247.407 87.154 247.949 87.658C248.49 88.162 248.761 88.834 248.761 89.674V91.158H243.581V91.494C243.581 91.802 243.679 92.0493 243.875 92.236C244.071 92.4227 244.337 92.516 244.673 92.516H245.765C246.091 92.516 246.353 92.446 246.549 92.306C246.754 92.1567 246.857 91.9653 246.857 91.732H248.733C248.733 92.1987 248.607 92.614 248.355 92.978C248.103 93.342 247.748 93.622 247.291 93.818C246.843 94.014 246.325 94.112 245.737 94.112H244.673ZM246.885 89.786V89.674C246.885 89.31 246.787 89.0207 246.591 88.806C246.395 88.582 246.133 88.47 245.807 88.47H244.673C244.337 88.47 244.066 88.5867 243.861 88.82C243.655 89.0533 243.553 89.3613 243.553 89.744V89.786H246.885ZM250.05 87.014H251.814V87.91C251.992 87.6393 252.244 87.42 252.57 87.252C252.906 87.0747 253.256 86.986 253.62 86.986H254.572V88.638H253.62C253.126 88.638 252.724 88.7873 252.416 89.086C252.108 89.3847 251.954 89.7673 251.954 90.234V94H250.05V87.014ZM255.13 89.576H259.736V91.228H255.13V89.576ZM263.785 94.112C263.197 94.112 262.675 93.9953 262.217 93.762C261.769 93.5287 261.419 93.202 261.167 92.782C260.925 92.362 260.803 91.8767 260.803 91.326V89.688C260.803 89.1373 260.925 88.652 261.167 88.232C261.419 87.812 261.769 87.4853 262.217 87.252C262.665 87.0187 263.183 86.902 263.771 86.902H264.877C265.437 86.902 265.932 87.014 266.361 87.238C266.791 87.462 267.122 87.7793 267.355 88.19C267.589 88.5913 267.705 89.058 267.705 89.59H265.815C265.815 89.2727 265.727 89.0207 265.549 88.834C265.381 88.638 265.157 88.54 264.877 88.54H263.799C263.473 88.54 263.207 88.6613 263.001 88.904C262.805 89.1373 262.707 89.4453 262.707 89.828V91.186C262.707 91.5687 262.81 91.8813 263.015 92.124C263.221 92.3573 263.487 92.474 263.813 92.474H264.891C265.19 92.474 265.428 92.3667 265.605 92.152C265.792 91.9373 265.885 91.6527 265.885 91.298H267.775C267.775 92.1473 267.509 92.8287 266.977 93.342C266.455 93.8553 265.759 94.112 264.891 94.112H263.785ZM271.325 94C270.495 94 269.883 93.8273 269.491 93.482C269.109 93.1273 268.917 92.5813 268.917 91.844V84.2H270.821V91.732C270.821 91.956 270.873 92.1193 270.975 92.222C271.078 92.3247 271.241 92.376 271.465 92.376H272.221V94H271.325ZM275.426 94.112C274.689 94.112 274.096 93.8647 273.648 93.37C273.2 92.866 272.976 92.208 272.976 91.396V87.014H274.88V91.424C274.88 91.732 274.955 91.984 275.104 92.18C275.263 92.3667 275.468 92.46 275.72 92.46H276.532C276.84 92.46 277.12 92.334 277.372 92.082C277.624 91.8207 277.801 91.48 277.904 91.06V87.014H279.808V94H278.044V93.104C277.829 93.4027 277.563 93.6453 277.246 93.832C276.938 94.0187 276.639 94.112 276.35 94.112H275.426ZM283.905 94.112C283.056 94.112 282.375 93.888 281.861 93.44C281.348 92.992 281.091 92.404 281.091 91.676H282.967C282.967 91.928 283.051 92.1333 283.219 92.292C283.397 92.4413 283.625 92.516 283.905 92.516H285.165C285.725 92.516 286.005 92.362 286.005 92.054V91.816C286.005 91.7227 285.959 91.6387 285.865 91.564C285.772 91.48 285.646 91.424 285.487 91.396L283.065 90.976C282.496 90.8827 282.043 90.682 281.707 90.374C281.381 90.0567 281.217 89.688 281.217 89.268V88.806C281.217 88.2087 281.46 87.742 281.945 87.406C282.44 87.07 283.126 86.902 284.003 86.902H285.095C285.879 86.902 286.509 87.112 286.985 87.532C287.471 87.9427 287.713 88.4887 287.713 89.17H285.837C285.837 88.9647 285.767 88.8013 285.627 88.68C285.497 88.5587 285.319 88.498 285.095 88.498H284.031C283.425 88.498 283.121 88.638 283.121 88.918V89.142C283.121 89.2447 283.159 89.3333 283.233 89.408C283.317 89.4733 283.434 89.52 283.583 89.548L286.131 90.01C286.663 90.1033 287.093 90.304 287.419 90.612C287.746 90.9107 287.909 91.2513 287.909 91.634V92.138C287.909 92.7447 287.657 93.2253 287.153 93.58C286.659 93.9347 285.996 94.112 285.165 94.112H283.905ZM292.081 94C291.259 94 290.657 93.8133 290.275 93.44C289.892 93.0667 289.701 92.488 289.701 91.704V88.638H288.469V87.014H289.757V84.9H291.605V87.014H293.425V88.638H291.605V91.62C291.605 91.8813 291.651 92.0727 291.745 92.194C291.847 92.3153 292.006 92.376 292.221 92.376H293.425V94H292.081ZM297.268 94.112C296.68 94.112 296.158 94.0047 295.7 93.79C295.252 93.566 294.902 93.258 294.65 92.866C294.398 92.4647 294.272 92.0073 294.272 91.494V89.688C294.272 89.1373 294.398 88.652 294.65 88.232C294.902 87.812 295.252 87.4853 295.7 87.252C296.158 87.0187 296.68 86.902 297.268 86.902H298.388C299.284 86.902 300.003 87.154 300.544 87.658C301.086 88.162 301.356 88.834 301.356 89.674V91.158H296.176V91.494C296.176 91.802 296.274 92.0493 296.47 92.236C296.666 92.4227 296.932 92.516 297.268 92.516H298.36C298.687 92.516 298.948 92.446 299.144 92.306C299.35 92.1567 299.452 91.9653 299.452 91.732H301.328C301.328 92.1987 301.202 92.614 300.95 92.978C300.698 93.342 300.344 93.622 299.886 93.818C299.438 94.014 298.92 94.112 298.332 94.112H297.268ZM299.48 89.786V89.674C299.48 89.31 299.382 89.0207 299.186 88.806C298.99 88.582 298.729 88.47 298.402 88.47H297.268C296.932 88.47 296.662 88.5867 296.456 88.82C296.251 89.0533 296.148 89.3613 296.148 89.744V89.786H299.48ZM302.646 87.014H304.41V87.91C304.587 87.6393 304.839 87.42 305.166 87.252C305.502 87.0747 305.852 86.986 306.216 86.986H307.168V88.638H306.216C305.721 88.638 305.32 88.7873 305.012 89.086C304.704 89.3847 304.55 89.7673 304.55 90.234V94H302.646V87.014ZM307.725 89.576H312.331V91.228H307.725V89.576ZM315.373 86.3L313.119 87.434V85.642L315.835 84.2H317.305V94H315.373V86.3ZM329.595 94C328.83 94 328.275 93.832 327.929 93.496C327.593 93.16 327.425 92.6187 327.425 91.872V88.148H326.193V87.014H327.439V84.9H328.727V87.014H330.547V88.148H328.727V91.844C328.727 92.208 328.797 92.4693 328.937 92.628C329.087 92.7867 329.325 92.866 329.651 92.866H330.547V94H329.595ZM334.453 94.112C333.632 94.112 332.969 93.8647 332.465 93.37C331.971 92.8753 331.723 92.2267 331.723 91.424V89.604C331.723 88.792 331.975 88.1387 332.479 87.644C332.983 87.1493 333.651 86.902 334.481 86.902H335.657C336.488 86.902 337.155 87.1493 337.659 87.644C338.163 88.1387 338.415 88.792 338.415 89.604V91.424C338.415 92.2267 338.159 92.8753 337.645 93.37C337.141 93.8647 336.474 94.112 335.643 94.112H334.453ZM335.629 92.964C336.077 92.964 336.437 92.8193 336.707 92.53C336.978 92.2407 337.113 91.8533 337.113 91.368V89.646C337.113 89.1607 336.978 88.7733 336.707 88.484C336.446 88.1947 336.096 88.05 335.657 88.05H334.481C334.043 88.05 333.688 88.1947 333.417 88.484C333.156 88.7733 333.025 89.1607 333.025 89.646V91.368C333.025 91.8533 333.156 92.2407 333.417 92.53C333.679 92.8193 334.029 92.964 334.467 92.964H335.629ZM346.139 94.112C345.374 94.112 344.753 93.8647 344.277 93.37C343.81 92.8753 343.577 92.222 343.577 91.41V89.758C343.577 89.198 343.689 88.7033 343.913 88.274C344.137 87.8353 344.45 87.4993 344.851 87.266C345.262 87.0233 345.733 86.902 346.265 86.902H347.217C347.516 86.902 347.81 86.972 348.099 87.112C348.388 87.252 348.622 87.4387 348.799 87.672V84.2H350.115V94H348.869V93.006C348.664 93.3327 348.393 93.5987 348.057 93.804C347.721 94.0093 347.385 94.112 347.049 94.112H346.139ZM347.105 92.964C347.544 92.964 347.926 92.7867 348.253 92.432C348.58 92.068 348.762 91.6387 348.799 91.144V89.562C348.734 89.1047 348.561 88.7407 348.281 88.47C348.01 88.19 347.684 88.05 347.301 88.05H346.363C345.924 88.05 345.565 88.2133 345.285 88.54C345.014 88.8573 344.879 89.282 344.879 89.814V91.368C344.879 91.844 345.005 92.2313 345.257 92.53C345.518 92.8193 345.845 92.964 346.237 92.964H347.105ZM354.524 94.112C353.702 94.112 353.04 93.8787 352.536 93.412C352.041 92.936 351.794 92.3153 351.794 91.55V89.618C351.794 88.7967 352.041 88.1387 352.536 87.644C353.04 87.1493 353.702 86.902 354.524 86.902H355.672C356.465 86.902 357.104 87.1447 357.59 87.63C358.075 88.1153 358.318 88.7593 358.318 89.562V90.878H353.096V91.55C353.096 91.9793 353.226 92.3247 353.488 92.586C353.749 92.8473 354.094 92.978 354.524 92.978H355.602C356.022 92.978 356.362 92.8707 356.624 92.656C356.885 92.432 357.016 92.138 357.016 91.774H358.29C358.29 92.474 358.042 93.0387 357.548 93.468C357.053 93.8973 356.4 94.112 355.588 94.112H354.524ZM357.016 89.842V89.562C357.016 89.0953 356.89 88.722 356.638 88.442C356.395 88.162 356.073 88.022 355.672 88.022H354.524C354.094 88.022 353.749 88.1713 353.488 88.47C353.226 88.7593 353.096 89.1467 353.096 89.632V89.842H357.016ZM362.077 94.112C361.321 94.112 360.715 93.9067 360.257 93.496C359.8 93.076 359.571 92.5253 359.571 91.844H360.845C360.845 92.1893 360.957 92.4693 361.181 92.684C361.405 92.8987 361.704 93.006 362.077 93.006H363.309C363.664 93.006 363.949 92.9407 364.163 92.81C364.378 92.67 364.485 92.488 364.485 92.264V91.858C364.485 91.7087 364.42 91.578 364.289 91.466C364.168 91.3447 364.009 91.2653 363.813 91.228L361.391 90.808C360.878 90.7147 360.467 90.5233 360.159 90.234C359.851 89.9353 359.697 89.59 359.697 89.198V88.736C359.697 88.1853 359.917 87.742 360.355 87.406C360.794 87.07 361.382 86.902 362.119 86.902H363.295C363.995 86.902 364.555 87.0933 364.975 87.476C365.405 87.8587 365.619 88.3673 365.619 89.002H364.345C364.336 88.7033 364.233 88.4653 364.037 88.288C363.851 88.1013 363.603 88.008 363.295 88.008H362.133C361.788 88.008 361.513 88.078 361.307 88.218C361.111 88.358 361.013 88.5447 361.013 88.778V89.128C361.013 89.2773 361.079 89.408 361.209 89.52C361.34 89.632 361.508 89.7113 361.713 89.758L364.163 90.192C364.649 90.276 365.041 90.4627 365.339 90.752C365.647 91.0413 365.801 91.3773 365.801 91.76V92.306C365.801 92.8473 365.573 93.286 365.115 93.622C364.658 93.9487 364.056 94.112 363.309 94.112H362.077ZM370.105 94C369.34 94 368.785 93.832 368.439 93.496C368.103 93.16 367.935 92.6187 367.935 91.872V88.148H366.703V87.014H367.949V84.9H369.237V87.014H371.057V88.148H369.237V91.844C369.237 92.208 369.307 92.4693 369.447 92.628C369.597 92.7867 369.835 92.866 370.161 92.866H371.057V94H370.105ZM373.642 86.09C373.371 86.09 373.152 86.0107 372.984 85.852C372.816 85.684 372.732 85.4693 372.732 85.208C372.732 84.9467 372.816 84.7367 372.984 84.578C373.152 84.41 373.371 84.326 373.642 84.326C373.913 84.326 374.127 84.41 374.286 84.578C374.454 84.7367 374.538 84.9467 374.538 85.208C374.538 85.4693 374.454 85.684 374.286 85.852C374.127 86.0107 373.913 86.09 373.642 86.09ZM372.984 87.014H374.286V94H372.984V87.014ZM376.492 87.014H377.738V87.98C377.943 87.6627 378.214 87.406 378.55 87.21C378.895 87.0047 379.236 86.902 379.572 86.902H380.496C381.168 86.902 381.709 87.126 382.12 87.574C382.54 88.022 382.75 88.61 382.75 89.338V94H381.448V89.338C381.448 88.9553 381.35 88.6473 381.154 88.414C380.958 88.1713 380.701 88.05 380.384 88.05H379.516C379.114 88.05 378.75 88.204 378.424 88.512C378.097 88.82 377.887 89.2213 377.794 89.716V94H376.492V87.014ZM386.712 94.112C386.012 94.112 385.452 93.9347 385.032 93.58C384.612 93.216 384.402 92.7353 384.402 92.138V91.676C384.402 91.088 384.622 90.6167 385.06 90.262C385.499 89.898 386.073 89.716 386.782 89.716H387.664C387.944 89.716 388.243 89.758 388.56 89.842C388.878 89.926 389.148 90.0427 389.372 90.192V89.17C389.372 88.8247 389.265 88.5493 389.05 88.344C388.836 88.1293 388.556 88.022 388.21 88.022H387.062C386.708 88.022 386.423 88.106 386.208 88.274C385.994 88.442 385.886 88.6613 385.886 88.932H384.598C384.598 88.3253 384.822 87.8353 385.27 87.462C385.728 87.0887 386.325 86.902 387.062 86.902H388.21C388.948 86.902 389.54 87.112 389.988 87.532C390.436 87.9427 390.66 88.4887 390.66 89.17V94H389.442V93.062C389.228 93.3793 388.948 93.636 388.602 93.832C388.257 94.0187 387.907 94.112 387.552 94.112H386.712ZM387.622 93.034C388.033 93.034 388.397 92.9173 388.714 92.684C389.032 92.4413 389.251 92.1193 389.372 91.718V91.298C389.195 91.1393 388.952 91.0133 388.644 90.92C388.336 90.8267 388.019 90.78 387.692 90.78H386.796C386.47 90.78 386.204 90.864 385.998 91.032C385.793 91.2 385.69 91.424 385.69 91.704V92.124C385.69 92.404 385.788 92.628 385.984 92.796C386.19 92.9547 386.46 93.034 386.796 93.034H387.622ZM395.385 94C394.619 94 394.064 93.832 393.719 93.496C393.383 93.16 393.215 92.6187 393.215 91.872V88.148H391.983V87.014H393.229V84.9H394.517V87.014H396.337V88.148H394.517V91.844C394.517 92.208 394.587 92.4693 394.727 92.628C394.876 92.7867 395.114 92.866 395.441 92.866H396.337V94H395.385ZM398.921 86.09C398.651 86.09 398.431 86.0107 398.263 85.852C398.095 85.684 398.011 85.4693 398.011 85.208C398.011 84.9467 398.095 84.7367 398.263 84.578C398.431 84.41 398.651 84.326 398.921 84.326C399.192 84.326 399.407 84.41 399.565 84.578C399.733 84.7367 399.817 84.9467 399.817 85.208C399.817 85.4693 399.733 85.684 399.565 85.852C399.407 86.0107 399.192 86.09 398.921 86.09ZM398.263 87.014H399.565V94H398.263V87.014ZM404.221 94.112C403.4 94.112 402.737 93.8647 402.233 93.37C401.738 92.8753 401.491 92.2267 401.491 91.424V89.604C401.491 88.792 401.743 88.1387 402.247 87.644C402.751 87.1493 403.418 86.902 404.249 86.902H405.425C406.256 86.902 406.923 87.1493 407.427 87.644C407.931 88.1387 408.183 88.792 408.183 89.604V91.424C408.183 92.2267 407.926 92.8753 407.413 93.37C406.909 93.8647 406.242 94.112 405.411 94.112H404.221ZM405.397 92.964C405.845 92.964 406.204 92.8193 406.475 92.53C406.746 92.2407 406.881 91.8533 406.881 91.368V89.646C406.881 89.1607 406.746 88.7733 406.475 88.484C406.214 88.1947 405.864 88.05 405.425 88.05H404.249C403.81 88.05 403.456 88.1947 403.185 88.484C402.924 88.7733 402.793 89.1607 402.793 89.646V91.368C402.793 91.8533 402.924 92.2407 403.185 92.53C403.446 92.8193 403.796 92.964 404.235 92.964H405.397ZM409.865 87.014H411.111V87.98C411.316 87.6627 411.587 87.406 411.923 87.21C412.268 87.0047 412.609 86.902 412.945 86.902H413.869C414.541 86.902 415.082 87.126 415.493 87.574C415.913 88.022 416.123 88.61 416.123 89.338V94H414.821V89.338C414.821 88.9553 414.723 88.6473 414.527 88.414C414.331 88.1713 414.074 88.05 413.757 88.05H412.889C412.487 88.05 412.123 88.204 411.797 88.512C411.47 88.82 411.26 89.2213 411.167 89.716V94H409.865V87.014ZM80.388 112.112C79.5853 112.112 78.9367 111.874 78.442 111.398C77.9473 110.913 77.7 110.278 77.7 109.494V107.618C77.7 106.797 77.9427 106.139 78.428 105.644C78.9227 105.149 79.5713 104.902 80.374 104.902H81.508C82.2733 104.902 82.8893 105.117 83.356 105.546C83.8227 105.975 84.056 106.545 84.056 107.254H82.768C82.768 106.89 82.6513 106.601 82.418 106.386C82.194 106.162 81.8907 106.05 81.508 106.05H80.388C79.9773 106.05 79.6413 106.199 79.38 106.498C79.128 106.787 79.002 107.175 79.002 107.66V109.452C79.002 109.909 79.1327 110.278 79.394 110.558C79.6553 110.829 79.9913 110.964 80.402 110.964H81.522C81.914 110.964 82.2267 110.829 82.46 110.558C82.7027 110.278 82.824 109.909 82.824 109.452H84.112C84.112 110.245 83.874 110.889 83.398 111.384C82.922 111.869 82.2967 112.112 81.522 112.112H80.388ZM87.6812 112C86.9439 112 86.4119 111.846 86.0852 111.538C85.7586 111.221 85.5952 110.712 85.5952 110.012V102.2H86.8972V109.97C86.8972 110.287 86.9626 110.516 87.0932 110.656C87.2239 110.796 87.4386 110.866 87.7372 110.866H88.2972V112H87.6812ZM91.662 112.112C90.9807 112.112 90.43 111.883 90.01 111.426C89.5994 110.969 89.394 110.367 89.394 109.62V105.014H90.696V109.648C90.696 110.04 90.794 110.357 90.99 110.6C91.186 110.843 91.4427 110.964 91.76 110.964H92.6C92.992 110.964 93.3514 110.805 93.678 110.488C94.0047 110.171 94.2194 109.769 94.322 109.284V105.014H95.624V112H94.392V110.992C94.168 111.319 93.888 111.589 93.552 111.804C93.216 112.009 92.8847 112.112 92.558 112.112H91.662ZM99.7415 112.112C98.9855 112.112 98.3788 111.907 97.9215 111.496C97.4641 111.076 97.2355 110.525 97.2355 109.844H98.5095C98.5095 110.189 98.6215 110.469 98.8455 110.684C99.0695 110.899 99.3681 111.006 99.7415 111.006H100.973C101.328 111.006 101.613 110.941 101.827 110.81C102.042 110.67 102.149 110.488 102.149 110.264V109.858C102.149 109.709 102.084 109.578 101.953 109.466C101.832 109.345 101.673 109.265 101.477 109.228L99.0555 108.808C98.5421 108.715 98.1315 108.523 97.8235 108.234C97.5155 107.935 97.3615 107.59 97.3615 107.198V106.736C97.3615 106.185 97.5808 105.742 98.0195 105.406C98.4581 105.07 99.0461 104.902 99.7835 104.902H100.959C101.659 104.902 102.219 105.093 102.639 105.476C103.069 105.859 103.283 106.367 103.283 107.002H102.009C102 106.703 101.897 106.465 101.701 106.288C101.515 106.101 101.267 106.008 100.959 106.008H99.7975C99.4521 106.008 99.1768 106.078 98.9715 106.218C98.7755 106.358 98.6775 106.545 98.6775 106.778V107.128C98.6775 107.277 98.7428 107.408 98.8735 107.52C99.0041 107.632 99.1721 107.711 99.3775 107.758L101.827 108.192C102.313 108.276 102.705 108.463 103.003 108.752C103.311 109.041 103.465 109.377 103.465 109.76V110.306C103.465 110.847 103.237 111.286 102.779 111.622C102.322 111.949 101.72 112.112 100.973 112.112H99.7415ZM107.769 112C107.004 112 106.449 111.832 106.103 111.496C105.767 111.16 105.599 110.619 105.599 109.872V106.148H104.367V105.014H105.613V102.9H106.901V105.014H108.721V106.148H106.901V109.844C106.901 110.208 106.971 110.469 107.111 110.628C107.261 110.787 107.499 110.866 107.825 110.866H108.721V112H107.769ZM112.627 112.112C111.806 112.112 111.143 111.879 110.639 111.412C110.145 110.936 109.897 110.315 109.897 109.55V107.618C109.897 106.797 110.145 106.139 110.639 105.644C111.143 105.149 111.806 104.902 112.627 104.902H113.775C114.569 104.902 115.208 105.145 115.693 105.63C116.179 106.115 116.421 106.759 116.421 107.562V108.878H111.199V109.55C111.199 109.979 111.33 110.325 111.591 110.586C111.853 110.847 112.198 110.978 112.627 110.978H113.705C114.125 110.978 114.466 110.871 114.727 110.656C114.989 110.432 115.119 110.138 115.119 109.774H116.393C116.393 110.474 116.146 111.039 115.651 111.468C115.157 111.897 114.503 112.112 113.691 112.112H112.627ZM115.119 107.842V107.562C115.119 107.095 114.993 106.722 114.741 106.442C114.499 106.162 114.177 106.022 113.775 106.022H112.627C112.198 106.022 111.853 106.171 111.591 106.47C111.33 106.759 111.199 107.147 111.199 107.632V107.842H115.119ZM118.025 105.014H119.271V106.036C119.458 105.728 119.728 105.476 120.083 105.28C120.447 105.084 120.825 104.986 121.217 104.986H121.945V106.148H121.217C120.648 106.148 120.19 106.325 119.845 106.68C119.5 107.025 119.327 107.483 119.327 108.052V112H118.025V105.014ZM128.718 112C128.093 112 127.692 111.636 127.514 110.908L126.1 105.014H128.074L128.928 109.452H128.956L130.482 105.182H131.224C131.439 105.182 131.612 105.229 131.742 105.322C131.873 105.415 131.976 105.56 132.05 105.756L133.352 109.452H133.38L134.22 105.014H136.194L134.808 110.908C134.64 111.636 134.239 112 133.604 112H132.736L131.182 107.576L129.572 112H128.718ZM139.741 112.112C139.153 112.112 138.63 112 138.173 111.776C137.725 111.543 137.375 111.216 137.123 110.796C136.88 110.376 136.759 109.891 136.759 109.34V107.702C136.759 107.151 136.885 106.666 137.137 106.246C137.389 105.817 137.739 105.485 138.187 105.252C138.644 105.019 139.167 104.902 139.755 104.902H141.015C141.603 104.902 142.121 105.019 142.569 105.252C143.026 105.485 143.381 105.817 143.633 106.246C143.885 106.666 144.011 107.151 144.011 107.702V109.34C144.011 109.891 143.885 110.376 143.633 110.796C143.381 111.216 143.026 111.543 142.569 111.776C142.121 112 141.598 112.112 141.001 112.112H139.741ZM140.973 110.474C141.318 110.474 141.593 110.357 141.799 110.124C142.004 109.881 142.107 109.569 142.107 109.186V107.828C142.107 107.445 142.004 107.137 141.799 106.904C141.593 106.661 141.323 106.54 140.987 106.54H139.783C139.447 106.54 139.176 106.661 138.971 106.904C138.765 107.137 138.663 107.445 138.663 107.828V109.186C138.663 109.569 138.765 109.881 138.971 110.124C139.176 110.357 139.442 110.474 139.769 110.474H140.973ZM145.351 105.014H147.115V105.91C147.292 105.639 147.544 105.42 147.871 105.252C148.207 105.075 148.557 104.986 148.921 104.986H149.873V106.638H148.921C148.426 106.638 148.025 106.787 147.717 107.086C147.409 107.385 147.255 107.767 147.255 108.234V112H145.351V105.014ZM155.54 112L153.356 109.2L152.614 109.942V112H150.71V102.2H152.614V107.8L155.372 105.014H157.584L154.588 107.982L157.696 112H155.54ZM160.823 112.112C160.235 112.112 159.712 112.005 159.255 111.79C158.807 111.566 158.457 111.258 158.205 110.866C157.953 110.465 157.827 110.007 157.827 109.494V107.688C157.827 107.137 157.953 106.652 158.205 106.232C158.457 105.812 158.807 105.485 159.255 105.252C159.712 105.019 160.235 104.902 160.823 104.902H161.943C162.839 104.902 163.558 105.154 164.099 105.658C164.64 106.162 164.911 106.834 164.911 107.674V109.158H159.731V109.494C159.731 109.802 159.829 110.049 160.025 110.236C160.221 110.423 160.487 110.516 160.823 110.516H161.915C162.242 110.516 162.503 110.446 162.699 110.306C162.904 110.157 163.007 109.965 163.007 109.732H164.883C164.883 110.199 164.757 110.614 164.505 110.978C164.253 111.342 163.898 111.622 163.441 111.818C162.993 112.014 162.475 112.112 161.887 112.112H160.823ZM163.035 107.786V107.674C163.035 107.31 162.937 107.021 162.741 106.806C162.545 106.582 162.284 106.47 161.957 106.47H160.823C160.487 106.47 160.216 106.587 160.011 106.82C159.806 107.053 159.703 107.361 159.703 107.744V107.786H163.035ZM166.201 105.014H167.965V105.91C168.142 105.639 168.394 105.42 168.721 105.252C169.057 105.075 169.407 104.986 169.771 104.986H170.723V106.638H169.771C169.276 106.638 168.875 106.787 168.567 107.086C168.259 107.385 168.105 107.767 168.105 108.234V112H166.201V105.014ZM171.28 107.576H175.886V109.228H171.28V107.576ZM179.936 112.112C179.348 112.112 178.825 111.995 178.368 111.762C177.92 111.529 177.57 111.202 177.318 110.782C177.075 110.362 176.954 109.877 176.954 109.326V107.688C176.954 107.137 177.075 106.652 177.318 106.232C177.57 105.812 177.92 105.485 178.368 105.252C178.816 105.019 179.334 104.902 179.922 104.902H181.028C181.588 104.902 182.083 105.014 182.512 105.238C182.941 105.462 183.273 105.779 183.506 106.19C183.739 106.591 183.856 107.058 183.856 107.59H181.966C181.966 107.273 181.877 107.021 181.7 106.834C181.532 106.638 181.308 106.54 181.028 106.54H179.95C179.623 106.54 179.357 106.661 179.152 106.904C178.956 107.137 178.858 107.445 178.858 107.828V109.186C178.858 109.569 178.961 109.881 179.166 110.124C179.371 110.357 179.637 110.474 179.964 110.474H181.042C181.341 110.474 181.579 110.367 181.756 110.152C181.943 109.937 182.036 109.653 182.036 109.298H183.926C183.926 110.147 183.66 110.829 183.128 111.342C182.605 111.855 181.91 112.112 181.042 112.112H179.936ZM187.476 112C186.645 112 186.034 111.827 185.642 111.482C185.259 111.127 185.068 110.581 185.068 109.844V102.2H186.972V109.732C186.972 109.956 187.023 110.119 187.126 110.222C187.229 110.325 187.392 110.376 187.616 110.376H188.372V112H187.476ZM191.576 112.112C190.839 112.112 190.246 111.865 189.798 111.37C189.35 110.866 189.126 110.208 189.126 109.396V105.014H191.03V109.424C191.03 109.732 191.105 109.984 191.254 110.18C191.413 110.367 191.618 110.46 191.87 110.46H192.682C192.99 110.46 193.27 110.334 193.522 110.082C193.774 109.821 193.952 109.48 194.054 109.06V105.014H195.958V112H194.194V111.104C193.98 111.403 193.714 111.645 193.396 111.832C193.088 112.019 192.79 112.112 192.5 112.112H191.576ZM200.056 112.112C199.206 112.112 198.525 111.888 198.012 111.44C197.498 110.992 197.242 110.404 197.242 109.676H199.118C199.118 109.928 199.202 110.133 199.37 110.292C199.547 110.441 199.776 110.516 200.056 110.516H201.316C201.876 110.516 202.156 110.362 202.156 110.054V109.816C202.156 109.723 202.109 109.639 202.016 109.564C201.922 109.48 201.796 109.424 201.638 109.396L199.216 108.976C198.646 108.883 198.194 108.682 197.858 108.374C197.531 108.057 197.368 107.688 197.368 107.268V106.806C197.368 106.209 197.61 105.742 198.096 105.406C198.59 105.07 199.276 104.902 200.154 104.902H201.246C202.03 104.902 202.66 105.112 203.136 105.532C203.621 105.943 203.864 106.489 203.864 107.17H201.988C201.988 106.965 201.918 106.801 201.778 106.68C201.647 106.559 201.47 106.498 201.246 106.498H200.182C199.575 106.498 199.272 106.638 199.272 106.918V107.142C199.272 107.245 199.309 107.333 199.384 107.408C199.468 107.473 199.584 107.52 199.734 107.548L202.282 108.01C202.814 108.103 203.243 108.304 203.57 108.612C203.896 108.911 204.06 109.251 204.06 109.634V110.138C204.06 110.745 203.808 111.225 203.304 111.58C202.809 111.935 202.146 112.112 201.316 112.112H200.056ZM208.231 112C207.41 112 206.808 111.813 206.425 111.44C206.043 111.067 205.851 110.488 205.851 109.704V106.638H204.619V105.014H205.907V102.9H207.755V105.014H209.575V106.638H207.755V109.62C207.755 109.881 207.802 110.073 207.895 110.194C207.998 110.315 208.157 110.376 208.371 110.376H209.575V112H208.231ZM213.419 112.112C212.831 112.112 212.308 112.005 211.851 111.79C211.403 111.566 211.053 111.258 210.801 110.866C210.549 110.465 210.423 110.007 210.423 109.494V107.688C210.423 107.137 210.549 106.652 210.801 106.232C211.053 105.812 211.403 105.485 211.851 105.252C212.308 105.019 212.831 104.902 213.419 104.902H214.539C215.435 104.902 216.153 105.154 216.695 105.658C217.236 106.162 217.507 106.834 217.507 107.674V109.158H212.327V109.494C212.327 109.802 212.425 110.049 212.621 110.236C212.817 110.423 213.083 110.516 213.419 110.516H214.511C214.837 110.516 215.099 110.446 215.295 110.306C215.5 110.157 215.603 109.965 215.603 109.732H217.479C217.479 110.199 217.353 110.614 217.101 110.978C216.849 111.342 216.494 111.622 216.037 111.818C215.589 112.014 215.071 112.112 214.483 112.112H213.419ZM215.631 107.786V107.674C215.631 107.31 215.533 107.021 215.337 106.806C215.141 106.582 214.879 106.47 214.553 106.47H213.419C213.083 106.47 212.812 106.587 212.607 106.82C212.401 107.053 212.299 107.361 212.299 107.744V107.786H215.631ZM218.796 105.014H220.56V105.91C220.738 105.639 220.99 105.42 221.316 105.252C221.652 105.075 222.002 104.986 222.366 104.986H223.318V106.638H222.366C221.872 106.638 221.47 106.787 221.162 107.086C220.854 107.385 220.7 107.767 220.7 108.234V112H218.796V105.014ZM223.876 107.576H228.482V109.228H223.876V107.576ZM229.48 110.6C229.48 110.04 229.582 109.555 229.788 109.144C229.993 108.733 230.343 108.379 230.838 108.08L234.31 106.008C234.478 105.915 234.608 105.784 234.702 105.616C234.804 105.448 234.856 105.28 234.856 105.112V104.664C234.856 104.403 234.758 104.193 234.562 104.034C234.375 103.875 234.128 103.796 233.82 103.796H232.532C232.168 103.796 231.883 103.931 231.678 104.202C231.472 104.463 231.37 104.837 231.37 105.322H229.438C229.438 104.305 229.708 103.511 230.25 102.942C230.791 102.373 231.542 102.088 232.504 102.088H233.82C234.408 102.088 234.926 102.195 235.374 102.41C235.822 102.625 236.167 102.928 236.41 103.32C236.662 103.712 236.788 104.16 236.788 104.664V105.112C236.788 105.616 236.68 106.05 236.466 106.414C236.26 106.769 235.934 107.077 235.486 107.338L232.112 109.298C231.888 109.429 231.715 109.573 231.594 109.732C231.482 109.891 231.426 110.087 231.426 110.32H236.844V112H229.48V110.6Z" fill="#828490"/>
</g>
<defs>
<filter id="filter0_d_642_14344" x="-9.30917" y="-7.44734" width="463.618" height="172.618" filterUnits="userSpaceOnUse" color-interpolation-filters="sRGB">
<feFlood flood-opacity="0" result="BackgroundImageFix"/>
<feColorMatrix in="SourceAlpha" type="matrix" values="0 0 0 0 0 0 0 0 0 0 0 0 0 0 0 0 0 0 127 0" result="hardAlpha"/>
<feOffset dy="1.86183"/>
<feGaussianBlur stdDeviation="4.65459"/>
<feColorMatrix type="matrix" values="0 0 0 0 0 0 0 0 0 0 0 0 0 0 0 0 0 0 0.06 0"/>
<feBlend mode="normal" in2="BackgroundImageFix" result="effect1_dropShadow_642_14344"/>
<feBlend mode="normal" in="SourceGraphic" in2="effect1_dropShadow_642_14344" result="shape"/>
</filter>
</defs>
</svg>
