<svg width="40" height="40" viewBox="0 0 40 40" fill="none" xmlns="http://www.w3.org/2000/svg">
<rect x="0.5" y="0.5" width="39" height="39" rx="3.5" fill="#F3F6FF"/>
<rect x="0.5" y="0.5" width="39" height="39" rx="3.5" stroke="#B6B8D6"/>
<path d="M22.0004 15.48C22.5309 15.48 23.0396 15.6907 23.4146 16.0658C23.7897 16.4408 24.0004 16.9495 24.0004 17.48C24.0004 18.59 23.1004 19.48 22.0004 19.48C21.47 19.48 20.9613 19.2693 20.5862 18.8942C20.2111 18.5191 20.0004 18.0104 20.0004 17.48C20.0004 16.9495 20.2111 16.4408 20.5862 16.0658C20.9613 15.6907 21.47 15.48 22.0004 15.48ZM27.0004 23.48C27.0004 24.59 26.1104 25.48 25.0004 25.48C24.47 25.48 23.9613 25.2693 23.5862 24.8942C23.2111 24.5191 23.0004 24.0104 23.0004 23.48C23.0004 22.9495 23.2111 22.4408 23.5862 22.0658C23.9613 21.6907 24.47 21.48 25.0004 21.48C26.1104 21.48 27.0004 22.38 27.0004 23.48ZM22.0004 28.48C25.312 28.48 28.3052 27.1548 30.5012 24.9995C30.8083 24.698 30.8581 24.227 30.6472 23.852L22.872 10.0294C22.4897 9.3498 21.5112 9.3498 21.1288 10.0294L13.3529 23.8534C13.1423 24.2278 13.1915 24.6978 13.4975 24.9992C15.6867 27.1547 18.6887 28.48 22.0004 28.48Z" fill="#D4D6F2"/>
<path d="M18.0004 17.48C18.5309 17.48 19.0396 17.6907 19.4146 18.0658C19.7897 18.4408 20.0004 18.9495 20.0004 19.48C20.0004 20.59 19.1004 21.48 18.0004 21.48C17.47 21.48 16.9613 21.2693 16.5862 20.8942C16.2111 20.5191 16.0004 20.0104 16.0004 19.48C16.0004 18.9495 16.2111 18.4408 16.5862 18.0658C16.9613 17.6907 17.47 17.48 18.0004 17.48ZM23.0004 25.48C23.0004 26.59 22.1104 27.48 21.0004 27.48C20.47 27.48 19.9613 27.2693 19.5862 26.8942C19.2111 26.5191 19.0004 26.0104 19.0004 25.48C19.0004 24.9495 19.2111 24.4408 19.5862 24.0658C19.9613 23.6907 20.47 23.48 21.0004 23.48C22.1104 23.48 23.0004 24.38 23.0004 25.48ZM18.0004 30.48C21.312 30.48 24.3052 29.1548 26.5012 26.9995C26.8083 26.698 26.8581 26.227 26.6472 25.852L18.872 12.0294C18.4897 11.3498 17.5112 11.3498 17.1288 12.0294L9.35286 25.8534C9.14228 26.2278 9.19145 26.6978 9.49751 26.9992C11.6867 29.1547 14.6887 30.48 18.0004 30.48Z" fill="#A1A4D3"/>
</svg>
