<svg width="69" height="24" viewBox="0 0 69 24" fill="none" xmlns="http://www.w3.org/2000/svg">
<rect x="0.25" y="0.5" width="68" height="23" rx="11.5" fill="#E8FFED"/>
<path d="M13.406 16.596C12.63 16.596 12.01 16.364 11.546 15.9C11.082 15.436 10.85 14.812 10.85 14.028H11.966C11.966 14.5 12.098 14.876 12.362 15.156C12.634 15.436 12.99 15.576 13.43 15.576H14.762C15.202 15.576 15.554 15.484 15.818 15.3C16.082 15.108 16.214 14.856 16.214 14.544V13.896C16.214 13.648 16.118 13.44 15.926 13.272C15.742 13.104 15.478 12.992 15.134 12.936L12.95 12.576C12.31 12.472 11.814 12.252 11.462 11.916C11.118 11.58 10.946 11.16 10.946 10.656V9.996C10.946 9.396 11.174 8.916 11.63 8.556C12.094 8.188 12.702 8.004 13.454 8.004H14.81C15.282 8.004 15.698 8.104 16.058 8.304C16.426 8.496 16.71 8.772 16.91 9.132C17.11 9.484 17.21 9.892 17.21 10.356H16.082C16.082 9.956 15.966 9.636 15.734 9.396C15.502 9.148 15.194 9.024 14.81 9.024H13.454C13.046 9.024 12.714 9.116 12.458 9.3C12.21 9.476 12.086 9.72 12.086 10.032V10.572C12.086 10.828 12.174 11.04 12.35 11.208C12.534 11.376 12.794 11.492 13.13 11.556L15.29 11.928C15.954 12.04 16.462 12.26 16.814 12.588C17.174 12.908 17.354 13.312 17.354 13.8V14.58C17.354 15.188 17.118 15.676 16.646 16.044C16.182 16.412 15.562 16.596 14.786 16.596H13.406ZM20.6026 16.596C20.0186 16.596 19.5466 16.4 19.1866 16.008C18.8346 15.616 18.6586 15.1 18.6586 14.46V10.512H19.7746V14.484C19.7746 14.82 19.8586 15.092 20.0266 15.3C20.1946 15.508 20.4146 15.612 20.6866 15.612H21.4066C21.7426 15.612 22.0506 15.476 22.3306 15.204C22.6106 14.932 22.7946 14.588 22.8826 14.172V10.512H23.9986V16.5H22.9426V15.636C22.7506 15.916 22.5106 16.148 22.2226 16.332C21.9346 16.508 21.6506 16.596 21.3706 16.596H20.6026ZM27.7438 16.596C27.0558 16.596 26.4998 16.392 26.0758 15.984C25.6518 15.568 25.4398 15.024 25.4398 14.352V12.744C25.4398 12.04 25.6478 11.476 26.0638 11.052C26.4878 10.628 27.0438 10.416 27.7318 10.416H28.7038C29.3598 10.416 29.8878 10.6 30.2878 10.968C30.6878 11.336 30.8878 11.824 30.8878 12.432H29.7838C29.7838 12.12 29.6838 11.872 29.4838 11.688C29.2918 11.496 29.0318 11.4 28.7038 11.4H27.7438C27.3918 11.4 27.1038 11.528 26.8798 11.784C26.6638 12.032 26.5558 12.364 26.5558 12.78V14.316C26.5558 14.708 26.6678 15.024 26.8918 15.264C27.1158 15.496 27.4038 15.612 27.7558 15.612H28.7158C29.0518 15.612 29.3198 15.496 29.5198 15.264C29.7278 15.024 29.8318 14.708 29.8318 14.316H30.9358C30.9358 14.996 30.7318 15.548 30.3238 15.972C29.9158 16.388 29.3798 16.596 28.7158 16.596H27.7438ZM34.2712 16.596C33.5832 16.596 33.0272 16.392 32.6032 15.984C32.1792 15.568 31.9672 15.024 31.9672 14.352V12.744C31.9672 12.04 32.1752 11.476 32.5912 11.052C33.0152 10.628 33.5712 10.416 34.2592 10.416H35.2312C35.8872 10.416 36.4152 10.6 36.8152 10.968C37.2152 11.336 37.4152 11.824 37.4152 12.432H36.3112C36.3112 12.12 36.2112 11.872 36.0112 11.688C35.8192 11.496 35.5592 11.4 35.2312 11.4H34.2712C33.9192 11.4 33.6312 11.528 33.4072 11.784C33.1912 12.032 33.0832 12.364 33.0832 12.78V14.316C33.0832 14.708 33.1952 15.024 33.4192 15.264C33.6432 15.496 33.9312 15.612 34.2832 15.612H35.2432C35.5792 15.612 35.8472 15.496 36.0472 15.264C36.2552 15.024 36.3592 14.708 36.3592 14.316H37.4632C37.4632 14.996 37.2592 15.548 36.8512 15.972C36.4432 16.388 35.9072 16.596 35.2432 16.596H34.2712ZM40.8345 16.596C40.1305 16.596 39.5625 16.396 39.1305 15.996C38.7065 15.588 38.4945 15.056 38.4945 14.4V12.744C38.4945 12.04 38.7065 11.476 39.1305 11.052C39.5625 10.628 40.1305 10.416 40.8345 10.416H41.8185C42.4985 10.416 43.0465 10.624 43.4625 11.04C43.8785 11.456 44.0865 12.008 44.0865 12.696V13.824H39.6105V14.4C39.6105 14.768 39.7225 15.064 39.9465 15.288C40.1705 15.512 40.4665 15.624 40.8345 15.624H41.7585C42.1185 15.624 42.4105 15.532 42.6345 15.348C42.8585 15.156 42.9705 14.904 42.9705 14.592H44.0625C44.0625 15.192 43.8505 15.676 43.4265 16.044C43.0025 16.412 42.4425 16.596 41.7465 16.596H40.8345ZM42.9705 12.936V12.696C42.9705 12.296 42.8625 11.976 42.6465 11.736C42.4385 11.496 42.1625 11.376 41.8185 11.376H40.8345C40.4665 11.376 40.1705 11.504 39.9465 11.76C39.7225 12.008 39.6105 12.34 39.6105 12.756V12.936H42.9705ZM47.3091 16.596C46.6611 16.596 46.1411 16.42 45.7491 16.068C45.3571 15.708 45.1611 15.236 45.1611 14.652H46.2531C46.2531 14.948 46.3491 15.188 46.5411 15.372C46.7331 15.556 46.9891 15.648 47.3091 15.648H48.3651C48.6691 15.648 48.9131 15.592 49.0971 15.48C49.2811 15.36 49.3731 15.204 49.3731 15.012V14.664C49.3731 14.536 49.3171 14.424 49.2051 14.328C49.1011 14.224 48.9651 14.156 48.7971 14.124L46.7211 13.764C46.2811 13.684 45.9291 13.52 45.6651 13.272C45.4011 13.016 45.2691 12.72 45.2691 12.384V11.988C45.2691 11.516 45.4571 11.136 45.8331 10.848C46.2091 10.56 46.7131 10.416 47.3451 10.416H48.3531C48.9531 10.416 49.4331 10.58 49.7931 10.908C50.1611 11.236 50.3451 11.672 50.3451 12.216H49.2531C49.2451 11.96 49.1571 11.756 48.9891 11.604C48.8291 11.444 48.6171 11.364 48.3531 11.364H47.3571C47.0611 11.364 46.8251 11.424 46.6491 11.544C46.4811 11.664 46.3971 11.824 46.3971 12.024V12.324C46.3971 12.452 46.4531 12.564 46.5651 12.66C46.6771 12.756 46.8211 12.824 46.9971 12.864L49.0971 13.236C49.5131 13.308 49.8491 13.468 50.1051 13.716C50.3691 13.964 50.5011 14.252 50.5011 14.58V15.048C50.5011 15.512 50.3051 15.888 49.9131 16.176C49.5211 16.456 49.0051 16.596 48.3651 16.596H47.3091ZM53.6724 16.596C53.0244 16.596 52.5044 16.42 52.1124 16.068C51.7204 15.708 51.5244 15.236 51.5244 14.652H52.6164C52.6164 14.948 52.7124 15.188 52.9044 15.372C53.0964 15.556 53.3524 15.648 53.6724 15.648H54.7284C55.0324 15.648 55.2764 15.592 55.4604 15.48C55.6444 15.36 55.7364 15.204 55.7364 15.012V14.664C55.7364 14.536 55.6804 14.424 55.5684 14.328C55.4644 14.224 55.3284 14.156 55.1604 14.124L53.0844 13.764C52.6444 13.684 52.2924 13.52 52.0284 13.272C51.7644 13.016 51.6324 12.72 51.6324 12.384V11.988C51.6324 11.516 51.8204 11.136 52.1964 10.848C52.5724 10.56 53.0764 10.416 53.7084 10.416H54.7164C55.3164 10.416 55.7964 10.58 56.1564 10.908C56.5244 11.236 56.7084 11.672 56.7084 12.216H55.6164C55.6084 11.96 55.5204 11.756 55.3524 11.604C55.1924 11.444 54.9804 11.364 54.7164 11.364H53.7204C53.4244 11.364 53.1884 11.424 53.0124 11.544C52.8444 11.664 52.7604 11.824 52.7604 12.024V12.324C52.7604 12.452 52.8164 12.564 52.9284 12.66C53.0404 12.756 53.1844 12.824 53.3604 12.864L55.4604 13.236C55.8764 13.308 56.2124 13.468 56.4684 13.716C56.7324 13.964 56.8644 14.252 56.8644 14.58V15.048C56.8644 15.512 56.6684 15.888 56.2764 16.176C55.8844 16.456 55.3684 16.596 54.7284 16.596H53.6724Z" fill="#02A827"/>
</svg>
