<svg width="60" height="68" viewBox="0 0 60 68" fill="none" xmlns="http://www.w3.org/2000/svg">
<g filter="url(#filter0_i_642_13474)">
<path d="M20.4538 38.0606C20.7351 38.3418 21.1166 38.4998 21.5143 38.4998C21.9121 38.4998 22.2935 38.3418 22.5748 38.0606L29.9998 30.6356L37.4248 38.0606C37.7077 38.3338 38.0866 38.485 38.4799 38.4816C38.8732 38.4782 39.2494 38.3204 39.5275 38.0423C39.8057 37.7642 39.9634 37.388 39.9668 36.9947C39.9702 36.6014 39.8191 36.2225 39.5458 35.9396L31.0603 27.4541C30.779 27.1729 30.3976 27.0149 29.9998 27.0149C29.6021 27.0149 29.2206 27.1729 28.9393 27.4541L20.4538 35.9396C20.1726 36.2209 20.0146 36.6023 20.0146 37.0001C20.0146 37.3978 20.1726 37.7793 20.4538 38.0606Z" fill="#81839A"/>
</g>
<defs>
<filter id="filter0_i_642_13474" x="0" y="0" width="60" height="68" filterUnits="userSpaceOnUse" color-interpolation-filters="sRGB">
<feFlood flood-opacity="0" result="BackgroundImageFix"/>
<feBlend mode="normal" in="SourceGraphic" in2="BackgroundImageFix" result="shape"/>
<feColorMatrix in="SourceAlpha" type="matrix" values="0 0 0 0 0 0 0 0 0 0 0 0 0 0 0 0 0 0 127 0" result="hardAlpha"/>
<feOffset dy="-1"/>
<feComposite in2="hardAlpha" operator="arithmetic" k2="-1" k3="1"/>
<feColorMatrix type="matrix" values="0 0 0 0 0.85098 0 0 0 0 0.87451 0 0 0 0 0.933333 0 0 0 1 0"/>
<feBlend mode="normal" in2="shape" result="effect1_innerShadow_642_13474"/>
</filter>
</defs>
</svg>
